<?xml version="1.0" standalone="no"?>
<!DOCTYPE svg PUBLIC "-//W3C//DTD SVG 20010904//EN"
 "http://www.w3.org/TR/2001/REC-SVG-20010904/DTD/svg10.dtd">
<svg version="1.0" xmlns="http://www.w3.org/2000/svg"
 width="3228.000000pt" height="2153.000000pt" viewBox="0 0 3228.000000 2153.000000"
 preserveAspectRatio="xMidYMid meet">

<g transform="translate(0.000000,2153.000000) scale(0.100000,-0.100000)"
fill="#000000" stroke="none">
<path d="M19905 20374 c-257 -27 -441 -83 -586 -180 -77 -51 -120 -105 -151
-192 -29 -81 -36 -300 -14 -484 30 -254 18 -406 -46 -586 -89 -254 -233 -457
-520 -738 -255 -248 -438 -389 -906 -694 -1012 -660 -1209 -805 -1497 -1101
-234 -240 -360 -434 -441 -674 -136 -408 -48 -839 270 -1315 126 -189 268
-363 426 -520 441 -443 984 -737 1785 -969 425 -122 1454 -353 2035 -455 663
-118 1024 -187 1145 -220 28 -7 118 -30 200 -50 315 -75 552 -159 1335 -469
600 -238 870 -334 1190 -426 663 -191 1142 -226 1915 -141 162 18 580 82 727
111 42 9 65 9 85 1 45 -18 83 -11 83 14 0 18 17 34 35 34 2 0 32 -30 66 -66
35 -36 77 -72 92 -80 15 -8 25 -19 22 -24 -3 -5 3 -18 15 -30 28 -28 26 -30
-21 -30 -24 0 -38 4 -34 10 3 6 2 10 -3 10 -13 0 -26 -34 -14 -38 5 -1 24 -14
42 -27 18 -13 37 -22 42 -19 14 9 48 -6 48 -21 0 -8 11 -22 25 -31 23 -15 35
-44 17 -44 -4 0 -23 13 -42 30 -41 34 -56 36 -82 13 -15 -13 -23 -15 -36 -6
-9 6 -16 18 -14 27 2 9 -4 16 -13 16 -33 0 -13 -39 40 -79 30 -23 62 -44 70
-47 8 -4 15 -13 15 -20 0 -8 7 -17 16 -21 35 -13 64 -50 64 -83 0 -26 3 -31
16 -26 15 6 16 -1 10 -56 -4 -35 -11 -79 -16 -98 -5 -19 -11 -63 -14 -98 -3
-35 -8 -67 -10 -71 -3 -4 -10 -41 -16 -82 -7 -41 -22 -114 -35 -164 -21 -84
-38 -160 -39 -177 -1 -5 3 -9 9 -10 5 -2 11 9 12 24 1 15 7 36 12 47 6 11 11
29 11 40 0 12 4 29 9 39 5 9 15 48 21 86 7 37 19 81 27 97 8 16 15 48 16 72 1
23 7 47 14 52 6 6 17 37 23 70 11 51 14 57 25 42 12 -16 15 -14 33 18 13 21
27 33 35 29 8 -3 20 2 27 11 12 14 10 16 -13 10 -23 -6 -27 -4 -27 15 0 33 18
60 36 53 12 -4 13 -8 3 -13 -6 -5 -9 -16 -5 -25 4 -12 10 -14 19 -7 9 8 13
-10 14 -81 2 -49 -1 -95 -6 -101 -14 -17 -26 -110 -13 -102 6 3 16 39 22 79
16 96 46 226 54 235 4 4 19 0 34 -9 15 -9 62 -37 105 -62 l77 -46 0 69 c0 65
-2 70 -32 95 -38 31 -226 206 -334 313 -41 39 -80 72 -85 72 -13 0 -72 41 -77
52 -2 4 -10 8 -18 8 -8 0 -22 17 -31 37 -18 37 -49 61 -36 27 4 -12 3 -15 -6
-10 -7 5 -10 14 -7 21 6 16 -17 38 -29 27 -5 -4 -5 -2 -2 4 8 13 -28 62 -38
53 -3 -4 1 -14 10 -23 19 -19 15 -20 -20 -4 -55 25 -33 38 145 83 58 15 134
36 169 46 84 25 85 25 78 -18 -4 -21 -9 -78 -12 -128 -4 -49 -11 -114 -16
-144 -15 -89 -14 -93 48 -138 45 -33 59 -39 65 -28 13 22 -12 66 -34 59 -10
-3 -18 -1 -18 5 0 10 18 25 35 27 6 0 15 2 22 2 6 1 11 19 11 45 -1 23 7 60
17 82 10 22 17 46 16 53 -1 8 6 16 17 19 10 2 23 17 29 31 11 26 11 26 12 -12
1 -22 -6 -77 -15 -123 -8 -46 -14 -89 -12 -95 3 -7 12 35 22 92 10 56 25 126
33 154 8 28 23 91 33 139 10 49 20 89 21 91 2 1 94 38 204 81 788 311 1295
709 1476 1161 53 132 71 247 66 409 -4 124 -10 168 -60 390 -72 321 -81 388
-74 543 9 223 62 359 247 637 190 286 227 388 217 603 -19 422 -259 873 -697
1313 -450 451 -1071 875 -1990 1359 -531 280 -1115 549 -2235 1030 -330 141
-693 299 -807 349 -176 78 -211 90 -228 81 -12 -6 -25 -21 -29 -33 -9 -24 6
-67 22 -67 6 0 8 -2 5 -5 -3 -3 -59 10 -124 29 -66 19 -284 80 -485 135 -451
124 -637 180 -900 272 -1052 368 -1476 485 -1949 538 -104 12 -412 22 -475 15z
m435 -125 c449 -43 885 -163 1930 -529 260 -91 480 -157 856 -260 468 -128
703 -196 916 -267 206 -68 245 -73 255 -32 3 11 11 18 17 15 185 -77 1169
-503 1406 -609 1031 -458 1779 -851 2385 -1251 389 -257 681 -492 940 -757
404 -413 613 -808 641 -1216 12 -159 -30 -266 -206 -530 -61 -91 -125 -193
-141 -225 -72 -142 -129 -375 -129 -523 0 -103 26 -261 86 -525 56 -246 58
-260 57 -395 0 -162 -17 -242 -81 -379 -121 -257 -346 -485 -700 -709 -140
-89 -467 -251 -657 -326 l-150 -60 -3 385 -2 385 -35 49 c-19 27 -35 53 -35
56 0 3 -15 38 -34 78 -19 39 -37 85 -40 101 -4 27 -3 26 11 -7 9 -21 19 -38
22 -38 8 0 53 116 71 183 7 27 19 51 27 54 9 3 13 23 13 62 l-1 56 -29 -34
c-40 -47 -136 -202 -132 -215 1 -6 -4 -3 -12 8 -26 32 -80 232 -96 351 -6 44
-25 123 -41 175 -16 52 -29 101 -29 110 0 8 -9 32 -20 53 -11 20 -20 54 -20
75 0 39 -33 170 -51 204 -15 29 -21 15 -8 -18 6 -16 24 -103 40 -194 16 -91
33 -183 38 -205 57 -236 74 -310 87 -369 14 -69 38 -147 69 -219 10 -26 13
-43 6 -50 -5 -7 -19 -50 -31 -97 -11 -47 -23 -93 -26 -102 -3 -10 -1 -18 5
-18 6 0 11 10 11 22 0 29 13 14 17 -20 2 -15 8 -52 14 -82 6 -30 12 -68 14
-83 1 -15 6 -32 12 -38 6 -6 14 24 22 86 25 177 21 173 69 78 l42 -82 -26
-163 c-37 -238 -34 -233 -78 -170 -19 28 -26 51 -26 88 0 30 -3 44 -9 36 -7
-11 -9 -11 -14 2 -4 9 -18 16 -31 16 -15 0 -30 8 -36 20 -6 11 -15 18 -20 15
-5 -3 -35 25 -67 62 -76 87 -128 139 -238 232 -49 42 -139 124 -200 183 -123
119 -165 154 -165 139 0 -5 5 -13 11 -17 6 -3 8 -17 5 -30 -5 -17 2 -31 26
-56 18 -18 51 -58 73 -88 22 -30 46 -60 55 -67 8 -6 12 -14 8 -18 -3 -3 -22
10 -43 30 -20 20 -38 35 -40 33 -2 -2 26 -33 63 -68 36 -36 60 -57 53 -47 -8
9 -11 21 -7 24 7 8 146 -133 146 -148 0 -12 -7 -11 -32 2 -19 10 -18 5 10 -45
18 -31 30 -56 27 -56 -3 0 -56 33 -118 74 -61 40 -137 88 -167 105 -87 51
-116 69 -281 176 -86 55 -175 111 -198 125 -23 14 -65 40 -94 59 -43 28 -233
120 -299 144 -31 11 -19 -2 20 -22 20 -11 31 -20 24 -21 -8 0 -11 -7 -8 -17 3
-10 1 -25 -4 -33 -8 -13 -13 -13 -31 -2 -11 7 -23 11 -26 8 -3 -2 12 -13 34
-24 39 -20 206 -117 328 -192 39 -24 117 -75 174 -114 218 -149 243 -165 386
-235 90 -45 124 -67 251 -163 49 -37 106 -80 127 -95 61 -45 131 -105 139
-118 4 -7 -6 -80 -23 -161 -41 -196 -43 -206 -24 -159 23 57 32 70 43 68 5 -1
8 6 5 17 -6 23 4 56 15 46 3 -4 8 -41 9 -82 2 -81 -14 -113 -57 -115 -26 -2
-30 -3 -60 -17 -32 -15 -329 -92 -355 -92 -12 0 -75 46 -144 106 -208 177
-312 250 -460 323 -71 35 -79 37 -58 17 15 -15 104 -66 194 -111 28 -14 74
-48 102 -74 28 -27 58 -52 67 -55 8 -3 12 -10 9 -16 -3 -5 -2 -10 4 -10 6 0
29 -18 52 -40 23 -22 39 -40 35 -40 -12 0 -70 31 -89 48 -9 8 -20 12 -24 9 -3
-4 4 -16 17 -27 18 -16 20 -20 7 -20 -9 0 -22 9 -29 20 -7 11 -19 20 -27 20
-8 0 -23 7 -33 17 -11 10 -18 12 -18 4 0 -6 22 -33 50 -59 62 -59 101 -112 93
-125 -3 -6 -1 -7 6 -3 11 7 28 -20 19 -30 -14 -14 -307 -68 -533 -99 -330 -45
-530 -58 -855 -58 -327 0 -440 9 -705 58 -448 83 -811 203 -1830 605 -623 246
-863 329 -1190 411 -78 20 -128 38 -143 52 -20 18 -34 22 -85 20 -36 -1 -121
10 -202 27 -176 36 -322 63 -755 140 -190 34 -415 75 -500 91 -177 35 -924
199 -1170 258 -1092 260 -1712 551 -2214 1040 -324 317 -587 702 -691 1013
-52 157 -69 275 -62 442 7 182 35 285 122 461 85 172 194 316 369 491 265 264
517 452 1171 874 738 476 946 632 1251 935 302 301 472 575 540 875 37 161 39
254 14 495 -45 426 -12 524 216 632 207 98 483 128 854 92z m6660 -7709 c0 -5
-4 -10 -10 -10 -5 0 -10 5 -10 10 0 6 5 10 10 10 6 0 10 -4 10 -10z m485 -593
c23 -32 18 -43 -8 -19 -13 12 -28 22 -34 22 -6 0 -13 6 -16 13 -8 22 41 8 58
-16z m90 -211 c9 -14 14 -35 10 -50 -3 -14 -7 -37 -10 -51 -5 -22 -50 -53 -61
-42 -2 2 3 38 11 81 8 43 15 80 15 82 0 13 22 1 35 -20z m96 -58 c11 -16 16
-28 11 -28 -13 0 -37 30 -56 70 l-17 35 21 -25 c11 -14 30 -37 41 -52z m-66
-40 c-10 -13 -14 -16 -11 -8 3 8 9 24 13 35 4 11 8 14 11 7 2 -6 -4 -22 -13
-34z m-105 -258 c-12 -40 -24 -70 -27 -67 -9 10 16 140 29 148 21 13 21 -5 -2
-81z m-585 60 c3 -5 -1 -10 -9 -10 -9 0 -16 5 -16 10 0 6 4 10 9 10 6 0 13 -4
16 -10z"/>
<path d="M24170 13870 c-60 -33 -137 -92 -90 -69 14 7 36 20 49 31 14 10 44
27 68 38 24 10 43 21 43 24 0 11 -15 6 -70 -24z"/>
<path d="M24015 13770 c-3 -6 1 -7 9 -4 18 7 21 14 7 14 -6 0 -13 -4 -16 -10z"/>
<path d="M24791 13394 c0 -11 3 -14 6 -6 3 7 2 16 -1 19 -3 4 -6 -2 -5 -13z"/>
<path d="M25949 13333 c-29 -32 -57 -58 -63 -58 -6 0 -17 -5 -25 -9 -15 -9 36
63 53 75 4 4 7 11 5 16 -2 6 -40 -30 -84 -79 -44 -49 -111 -124 -150 -165 -38
-41 -72 -81 -75 -88 -5 -13 -78 -100 -135 -160 -37 -40 -73 -81 -147 -168 -32
-38 -69 -81 -82 -95 -13 -15 -35 -40 -48 -55 -14 -18 -29 -26 -38 -22 -25 10
-116 147 -180 270 -20 39 -41 79 -47 90 -6 11 -17 35 -24 53 -6 18 -14 31 -16
28 -3 -3 4 -30 16 -60 19 -52 19 -56 3 -56 -10 0 -13 -3 -6 -8 13 -9 27 -45
14 -37 -16 10 42 -107 79 -160 19 -27 57 -76 84 -108 41 -47 47 -60 37 -72
-17 -20 -31 -19 -100 9 -33 14 -60 22 -60 18 0 -4 18 -24 40 -46 22 -21 40
-42 40 -47 0 -14 58 -40 65 -29 3 6 10 10 16 10 5 0 4 -9 -3 -19 -10 -17 -9
-24 7 -41 27 -30 91 -66 157 -89 30 -10 69 -26 87 -36 18 -9 35 -14 37 -12 3
2 -26 19 -63 36 -90 42 -96 46 -100 58 -2 5 9 8 27 5 17 -2 30 0 30 6 0 6 34
-5 76 -24 42 -20 78 -33 81 -30 6 5 -40 26 -56 26 -5 0 -14 7 -21 16 -13 15
-74 45 -88 43 -19 -3 -46 3 -34 8 8 3 -4 18 -33 41 -25 19 -44 40 -42 46 6 17
33 19 49 3 8 -8 30 -22 48 -32 35 -17 35 -17 -7 20 -24 20 -43 42 -43 48 0 7
63 77 141 157 193 199 399 429 408 454 2 6 16 25 30 43 14 18 51 69 81 113 30
45 70 102 88 126 18 24 31 44 28 44 -2 0 -28 -26 -57 -57z m-542 -629 c-3 -3
-12 -4 -19 -1 -8 3 -5 6 6 6 11 1 17 -2 13 -5z m-27 -43 c0 -5 -37 -47 -82
-93 -74 -76 -85 -82 -33 -20 11 14 35 40 53 59 18 19 30 38 27 43 -4 6 1 7 11
3 12 -4 15 -3 10 5 -4 7 -2 12 3 12 6 0 11 -4 11 -9z"/>
<path d="M24822 13210 c0 -14 2 -19 5 -12 2 6 2 18 0 25 -3 6 -5 1 -5 -13z"/>
<path d="M23633 13203 c9 -2 23 -2 30 0 6 3 -1 5 -18 5 -16 0 -22 -2 -12 -5z"/>
<path d="M23688 13203 c6 -2 18 -2 25 0 6 3 1 5 -13 5 -14 0 -19 -2 -12 -5z"/>
<path d="M23758 13193 c7 -3 16 -2 19 1 4 3 -2 6 -13 5 -11 0 -14 -3 -6 -6z"/>
<path d="M24831 13164 c0 -11 3 -14 6 -6 3 7 2 16 -1 19 -3 4 -6 -2 -5 -13z"/>
<path d="M23860 13158 c3 -3 41 -25 85 -48 44 -23 84 -46 90 -51 9 -9 -57 9
-134 36 -22 8 -43 10 -46 5 -8 -13 19 -24 105 -45 41 -9 87 -24 102 -31 39
-20 162 -64 166 -59 13 13 -231 157 -297 175 -23 6 -50 14 -59 17 -9 3 -15 4
-12 1z"/>
<path d="M23750 13131 c0 -10 70 -34 77 -27 4 3 4 9 0 12 -9 9 -77 23 -77 15z"/>
<path d="M23137 12987 c-9 -19 -19 -60 -22 -93 -5 -58 -4 -57 19 31 13 50 23
91 21 93 -1 1 -10 -12 -18 -31z"/>
<path d="M24340 12896 c0 -15 239 -176 260 -176 5 0 15 -9 23 -21 8 -11 17
-17 20 -12 3 5 -6 18 -19 28 -112 89 -164 125 -231 159 -29 14 -53 24 -53 22z"/>
<path d="M24785 12814 c-80 -65 -127 -110 -95 -88 17 12 113 87 120 94 3 3 20
18 38 33 19 15 30 27 25 27 -5 0 -45 -30 -88 -66z"/>
<path d="M26770 12753 c0 -5 19 -27 42 -48 l42 -40 -33 42 c-34 45 -51 60 -51
46z"/>
<path d="M24710 12550 c8 -5 23 -10 32 -10 21 0 43 -36 28 -45 -19 -12 -10
-26 28 -41 94 -39 222 -106 222 -116 0 -6 -11 -30 -25 -54 -33 -57 -55 -145
-54 -219 l1 -60 8 45 c10 53 36 128 51 146 6 7 7 19 3 25 -5 9 -2 10 9 6 18
-7 24 8 7 18 -13 8 -12 16 6 40 13 17 16 18 24 5 6 -9 10 -10 10 -3 0 6 -5 15
-11 19 -7 4 -8 9 -1 13 15 9 -10 36 -105 114 -45 38 -91 80 -101 94 -16 22
-27 26 -83 29 -42 2 -59 0 -49 -6z"/>
<path d="M27747 12528 c-3 -12 -2 -29 3 -37 7 -12 9 -6 10 22 0 42 -5 48 -13
15z"/>
<path d="M27050 12446 c0 -2 8 -10 18 -17 15 -13 16 -12 3 4 -13 16 -21 21
-21 13z"/>
<path d="M25082 12278 c-14 -14 -16 -28 -3 -28 9 0 24 30 18 36 -2 2 -9 -2
-15 -8z"/>
<path d="M25020 12260 c0 -5 7 -10 16 -10 8 0 12 5 9 10 -3 6 -10 10 -16 10
-5 0 -9 -4 -9 -10z"/>
<path d="M25031 11984 c0 -11 3 -14 6 -6 3 7 2 16 -1 19 -3 4 -6 -2 -5 -13z"/>
<path d="M25960 11899 c19 -12 46 -29 60 -39 32 -22 78 -45 65 -33 -37 34
-134 93 -152 93 -4 0 8 -10 27 -21z"/>
<path d="M25036 11820 c2 -47 8 -98 13 -115 7 -21 8 -2 4 65 -8 121 -21 163
-17 50z"/>
<path d="M26260 11837 c10 -11 125 -87 133 -87 15 0 -3 18 -31 33 -15 7 -45
24 -67 37 -22 13 -38 21 -35 17z"/>
<path d="M25235 11810 c-3 -5 -1 -10 4 -10 6 0 11 5 11 10 0 6 -2 10 -4 10 -3
0 -8 -4 -11 -10z"/>
<path d="M25262 11720 c1 -41 -3 -83 -7 -92 -4 -11 -3 -18 4 -18 6 0 11 -4 11
-10 0 -5 -6 -9 -12 -7 -8 1 -12 -6 -10 -18 2 -11 5 -39 9 -62 6 -48 14 -53 32
-20 12 22 7 87 -19 252 -8 48 -8 46 -8 -25z"/>
<path d="M25241 11754 c0 -11 3 -14 6 -6 3 7 2 16 -1 19 -3 4 -6 -2 -5 -13z"/>
<path d="M26494 11665 c8 -8 18 -15 22 -15 3 0 1 7 -6 15 -7 8 -17 15 -22 15
-5 0 -3 -7 6 -15z"/>
<path d="M25367 11485 c3 -27 7 -52 9 -54 7 -8 2 54 -6 79 -6 17 -7 9 -3 -25z"/>
<path d="M25382 11400 c0 -14 2 -19 5 -12 2 6 2 18 0 25 -3 6 -5 1 -5 -13z"/>
<path d="M21460 12124 c0 -10 14 -46 83 -214 85 -206 99 -236 114 -250 14 -13
15 -13 10 3 -21 58 -57 213 -58 244 -1 21 -4 47 -7 59 -8 24 -142 174 -142
158z"/>
<path d="M21640 11873 c0 -16 21 -74 50 -138 15 -33 31 -71 35 -85 4 -14 12
-31 18 -38 5 -7 6 -16 2 -20 -4 -4 -10 -1 -12 6 -12 32 -23 6 -19 -45 4 -56
55 -190 63 -166 2 6 -7 34 -21 61 -27 54 -25 74 6 39 l19 -22 -7 25 c-9 33
-23 59 -24 43 0 -7 -4 -13 -9 -13 -11 0 -9 32 4 46 13 16 55 -49 58 -91 2 -29
7 -36 30 -41 15 -3 27 -10 27 -15 0 -5 4 -9 9 -9 11 0 -15 58 -127 280 -98
192 -102 200 -102 183z"/>
<path d="M20464 11757 c3 -10 9 -37 12 -60 3 -23 10 -51 15 -62 5 -11 15 -38
23 -60 8 -22 15 -34 15 -27 1 19 -49 194 -61 212 -8 12 -8 12 -4 -3z"/>
<path d="M20400 11410 c13 -23 20 -26 20 -6 0 8 -7 16 -15 20 -13 4 -14 2 -5
-14z"/>
<path d="M20430 11368 c0 -7 12 -33 27 -58 37 -63 83 -158 83 -171 0 -6 8 -21
18 -33 17 -22 17 -22 19 26 1 26 -2 48 -7 48 -6 0 -28 37 -51 83 -42 83 -65
117 -81 117 -4 0 -8 -6 -8 -12z"/>
<path d="M27006 11226 c3 -9 11 -16 16 -16 13 0 5 23 -10 28 -7 2 -10 -2 -6
-12z"/>
<path d="M26950 11220 c0 -5 5 -10 11 -10 5 0 7 5 4 10 -3 6 -8 10 -11 10 -2
0 -4 -4 -4 -10z"/>
<path d="M20609 11069 c5 -15 8 -37 5 -50 -3 -19 -3 -20 4 -6 10 23 22 11 46
-47 9 -22 19 -37 22 -34 3 3 -12 37 -32 74 -40 75 -61 105 -45 63z"/>
<path d="M27032 11065 c12 -26 32 -33 44 -13 8 12 -21 38 -43 38 -10 0 -10 -5
-1 -25z"/>
<path d="M27586 11009 c-21 -51 -28 -96 -17 -103 9 -6 22 21 26 54 1 8 5 28 9
43 12 41 -1 46 -18 6z"/>
<path d="M20611 10974 c0 -11 3 -14 6 -6 3 7 2 16 -1 19 -3 4 -6 -2 -5 -13z"/>
<path d="M25291 10944 c0 -11 3 -14 6 -6 3 7 2 16 -1 19 -3 4 -6 -2 -5 -13z"/>
<path d="M25302 10895 c0 -16 2 -22 5 -12 2 9 2 23 0 30 -3 6 -5 -1 -5 -18z"/>
<path d="M20665 10858 c4 -13 11 -27 16 -33 5 -5 4 5 -2 23 -12 36 -24 44 -14
10z"/>
<path d="M20608 10783 c-2 -37 -1 -76 2 -86 5 -16 7 -16 18 7 8 19 9 41 1 83
-6 32 -12 59 -14 61 -2 2 -5 -27 -7 -65z"/>
<path d="M21891 10834 c0 -11 3 -14 6 -6 3 7 2 16 -1 19 -3 4 -6 -2 -5 -13z"/>
<path d="M25316 10805 c4 -16 8 -61 9 -100 2 -38 10 -95 18 -125 8 -30 18 -84
22 -120 14 -139 95 -417 184 -630 10 -25 26 -63 34 -85 69 -180 127 -309 127
-283 0 4 -16 46 -35 92 -19 47 -35 91 -35 98 0 7 -7 27 -16 43 -17 33 -85 223
-116 325 -34 114 -57 223 -58 275 0 28 -9 104 -19 170 -11 66 -22 147 -26 180
-6 56 -19 119 -33 155 -3 9 -8 1 -12 -20 l-6 -35 -22 45 c-17 36 -21 39 -16
15z"/>
<path d="M21937 10745 c3 -11 12 -29 20 -40 10 -16 13 -16 13 -3 0 9 -9 26
-20 39 -17 21 -19 21 -13 4z"/>
<path d="M20736 10705 c6 -30 44 -80 44 -58 0 6 -6 18 -13 25 -7 7 -18 24 -24
38 -12 25 -12 25 -7 -5z"/>
<path d="M21982 10653 c24 -53 126 -225 138 -233 4 -3 15 -21 25 -40 22 -44
176 -275 211 -315 l25 -30 -24 45 c-13 25 -35 61 -48 80 -13 20 -33 55 -43 78
-10 23 -23 42 -28 42 -4 0 -8 7 -8 15 0 8 -9 20 -20 27 -11 7 -20 21 -20 31 0
26 -31 77 -47 77 -7 0 -13 9 -13 19 0 11 -4 23 -10 26 -5 3 -10 13 -10 22 0 9
-12 28 -26 42 -14 14 -38 47 -54 74 -16 26 -35 47 -41 47 -6 0 -9 -3 -7 -7z"/>
<path d="M23761 10616 c-7 -8 -9 -26 -6 -43 13 -62 89 -286 93 -274 6 17 -39
250 -49 257 -5 3 -9 15 -9 27 0 35 -14 51 -29 33z"/>
<path d="M22501 10260 c14 -31 19 -36 19 -24 0 6 -7 19 -16 30 -14 18 -14 18
-3 -6z"/>
<path d="M22571 10132 c13 -22 25 -39 27 -37 5 5 -27 63 -39 71 -6 3 0 -12 12
-34z"/>
<path d="M22630 10044 c0 -6 7 -19 16 -30 14 -18 14 -18 3 6 -14 31 -19 36
-19 24z"/>
<path d="M22710 9901 c0 -5 9 -19 20 -32 l21 -24 -16 33 c-15 31 -25 41 -25
23z"/>
<path d="M27165 9897 c-4 -10 -5 -21 -1 -24 10 -10 18 4 13 24 -4 17 -4 17
-12 0z"/>
<path d="M27280 9855 c0 -10 29 -24 34 -17 3 6 -3 12 -14 15 -11 3 -20 4 -20
2z"/>
<path d="M21190 9818 c1 -21 40 -102 46 -95 8 8 -26 107 -37 107 -5 0 -9 -6
-9 -12z"/>
<path d="M22771 9805 c0 -5 6 -21 14 -35 8 -14 14 -20 14 -15 0 6 -6 21 -14
35 -8 14 -14 21 -14 15z"/>
<path d="M22843 9663 c12 -26 31 -61 43 -78 11 -16 32 -50 46 -75 14 -25 36
-54 49 -65 16 -14 12 -5 -13 30 -19 28 -56 89 -82 137 -52 96 -79 127 -43 51z"/>
<path d="M25720 9411 c0 -5 5 -13 10 -16 6 -3 10 -2 10 4 0 5 -4 13 -10 16 -5
3 -10 2 -10 -4z"/>
<path d="M24186 9269 c-4 -22 -2 -37 9 -49 9 -9 21 -48 29 -86 7 -38 17 -78
23 -89 6 -11 18 -37 27 -57 8 -21 22 -38 31 -38 18 0 20 16 2 27 -12 7 -63
158 -88 257 -16 63 -25 73 -33 35z"/>
<path d="M24286 8882 c-3 -5 2 -26 10 -48 8 -21 17 -47 21 -56 3 -10 9 -18 13
-18 4 0 11 -12 14 -27 20 -84 79 -254 86 -247 15 16 15 94 1 103 -8 5 -11 13
-8 18 4 6 1 24 -6 42 -9 24 -9 36 1 51 6 11 12 27 12 35 0 13 -4 14 -20 5 -11
-6 -20 -9 -21 -8 0 2 -2 20 -4 40 -2 20 -12 49 -21 63 -19 29 -70 60 -78 47z"/>
<path d="M24281 8744 c0 -11 3 -14 6 -6 3 7 2 16 -1 19 -3 4 -6 -2 -5 -13z"/>
<path d="M24557 8693 c-15 -15 -5 -46 23 -70 17 -14 30 -35 30 -47 0 -13 7
-38 16 -56 16 -30 16 -33 0 -42 -12 -7 -14 -13 -6 -29 13 -23 33 -25 50 -4 7
9 20 13 28 10 10 -4 12 0 8 12 -4 9 -11 35 -16 58 -5 23 -12 50 -16 59 -6 16
-4 17 14 7 60 -32 29 5 -54 64 -67 48 -67 48 -77 38z"/>
<path d="M24740 8557 c0 -8 7 -20 15 -27 12 -10 15 -10 15 3 0 8 -7 20 -15 27
-12 10 -15 10 -15 -3z"/>
<path d="M20890 8540 c0 -26 17 -32 55 -21 l30 9 -37 16 c-47 20 -48 20 -48
-4z"/>
<path d="M24837 8504 c3 -9 48 -58 100 -109 51 -50 93 -99 93 -108 0 -10 6
-17 13 -18 6 0 54 -50 105 -110 50 -61 92 -104 92 -98 0 7 -8 22 -19 33 -10
12 -61 78 -114 148 -90 120 -151 187 -201 222 -11 9 -33 25 -49 36 -23 18 -26
19 -20 4z"/>
<path d="M21180 8437 c14 -8 27 -12 30 -10 7 6 -23 23 -40 23 -8 0 -4 -6 10
-13z"/>
<path d="M24443 8421 c6 -17 15 -28 19 -25 9 6 -6 39 -21 49 -5 3 -4 -8 2 -24z"/>
<path d="M24670 8423 c0 -5 8 -17 17 -28 14 -18 15 -18 9 -2 -3 10 -6 23 -6
28 0 5 -4 9 -10 9 -5 0 -10 -3 -10 -7z"/>
<path d="M21226 8361 c5 -5 20 -12 34 -16 24 -7 24 -7 5 9 -21 16 -56 23 -39
7z"/>
<path d="M26210 8363 c1 -10 39 -60 40 -51 0 17 -21 58 -30 58 -5 0 -10 -3
-10 -7z"/>
<path d="M26255 8278 c4 -13 20 -48 36 -78 15 -30 34 -68 40 -85 6 -16 13 -25
16 -18 2 6 -17 55 -42 107 -46 93 -64 120 -50 74z"/>
<path d="M24740 8230 c0 -5 5 -10 11 -10 5 0 7 5 4 10 -3 6 -8 10 -11 10 -2 0
-4 -4 -4 -10z"/>
<path d="M25322 8154 c10 -10 20 -15 24 -12 3 4 -5 12 -18 18 -22 12 -22 12
-6 -6z"/>
<path d="M26240 8101 c0 -6 4 -13 10 -16 6 -3 7 1 4 9 -7 18 -14 21 -14 7z"/>
<path d="M23050 8039 c-11 -19 -10 -20 9 -9 12 6 21 15 21 20 0 18 -19 11 -30
-11z"/>
<path d="M26370 8046 c0 -8 4 -17 9 -20 5 -4 7 3 4 14 -6 23 -13 26 -13 6z"/>
<path d="M22150 8030 c8 -5 20 -10 25 -10 6 0 3 5 -5 10 -8 5 -19 10 -25 10
-5 0 -3 -5 5 -10z"/>
<path d="M25490 8010 c20 -13 33 -13 25 0 -3 6 -14 10 -23 10 -15 0 -15 -2 -2
-10z"/>
<path d="M25589 7936 c14 -16 71 -51 71 -43 0 3 -19 17 -42 32 -25 16 -37 21
-29 11z"/>
<path d="M26436 7910 c3 -14 10 -29 15 -34 5 -6 9 -15 9 -22 0 -7 18 -52 40
-101 93 -202 137 -262 57 -76 -50 116 -132 274 -121 233z"/>
<path d="M18087 7909 c-10 -6 -68 -21 -130 -34 -62 -13 -155 -35 -207 -49 -52
-14 -103 -26 -113 -26 -11 0 -35 -7 -54 -17 l-35 -16 30 -19 c30 -19 31 -19
159 13 70 17 153 39 183 49 120 40 234 53 410 45 91 -4 173 -7 182 -7 17 1
195 -32 333 -61 39 -9 94 -18 124 -22 30 -3 93 -21 140 -39 47 -18 109 -39
136 -46 28 -7 55 -16 60 -21 6 -4 44 -17 85 -29 242 -70 442 -145 590 -221 85
-44 169 -91 187 -105 43 -32 52 -30 49 11 -2 19 0 35 3 35 4 0 8 14 9 30 3 39
-6 38 -20 0 l-10 -31 -32 21 c-17 12 -74 42 -126 67 -52 25 -140 67 -195 93
-55 26 -134 58 -175 70 -41 12 -136 42 -210 67 -74 25 -189 58 -255 73 -66 15
-145 38 -175 49 -82 32 -241 70 -344 82 -50 6 -143 18 -206 27 -144 20 -368
26 -393 11z"/>
<path d="M22500 7900 c8 -5 22 -9 30 -9 10 0 8 3 -5 9 -27 12 -43 12 -25 0z"/>
<path d="M22710 7810 c8 -5 20 -10 25 -10 6 0 3 5 -5 10 -8 5 -19 10 -25 10
-5 0 -3 -5 5 -10z"/>
<path d="M17355 7770 c-22 -24 -6 -26 35 -5 36 19 38 25 7 25 -13 0 -32 -9
-42 -20z"/>
<path d="M25790 7770 c6 -11 13 -20 16 -20 2 0 0 9 -6 20 -6 11 -13 20 -16 20
-2 0 0 -9 6 -20z"/>
<path d="M22814 7746 c11 -9 24 -16 30 -16 12 0 7 5 -24 19 -24 11 -24 11 -6
-3z"/>
<path d="M17380 7730 c-47 -10 -98 -23 -114 -29 -28 -11 -28 -12 -10 -25 25
-17 74 -29 74 -18 0 5 26 13 58 19 32 6 75 18 97 27 36 16 37 17 19 31 -23 18
-20 18 -124 -5z"/>
<path d="M22885 7703 c6 -5 37 -29 70 -53 67 -49 89 -68 189 -166 38 -38 64
-58 57 -47 -14 27 -192 189 -251 229 -53 36 -80 51 -65 37z"/>
<path d="M17050 7662 c-30 -9 -60 -20 -65 -24 -6 -3 -73 -14 -150 -23 -77 -9
-159 -20 -182 -26 -23 -5 -77 -9 -121 -9 -43 0 -107 -3 -141 -6 -53 -6 -65
-11 -82 -36 -12 -16 -19 -32 -16 -35 3 -3 50 0 104 6 54 7 145 13 203 15 99 3
202 16 280 34 19 5 37 9 40 9 21 2 193 39 290 64 l45 11 -24 19 c-29 24 -104
24 -181 1z"/>
<path d="M20320 7658 c0 -7 -7 -71 -15 -143 -12 -117 -13 -258 -1 -325 2 -14
5 -31 5 -38 1 -7 5 -11 10 -7 21 12 121 -143 146 -225 4 -14 17 -45 28 -70 12
-25 21 -48 21 -52 1 -3 4 -10 9 -14 4 -4 7 -15 7 -25 0 -23 30 -56 59 -64 22
-7 23 -6 16 36 -13 86 -37 151 -79 217 -23 37 -62 104 -86 150 -23 45 -52 90
-64 100 -60 47 -65 78 -52 320 5 83 6 152 2 152 -3 0 -6 -6 -6 -12z"/>
<path d="M25910 7634 c1 -10 50 -73 50 -63 0 3 -11 20 -25 39 -14 19 -25 30
-25 24z"/>
<path d="M22800 7620 c0 -6 11 -16 25 -22 14 -6 32 -22 40 -35 10 -15 25 -23
43 -22 l27 0 -25 17 c-13 9 -32 25 -42 34 -17 17 -52 38 -62 38 -3 0 -6 -5 -6
-10z"/>
<path d="M25690 7555 c0 -4 19 -26 41 -50 23 -25 49 -55 57 -67 8 -13 31 -40
51 -60 22 -24 30 -38 21 -38 -8 -1 0 -7 18 -15 17 -8 32 -19 32 -24 0 -6 23
-33 50 -59 28 -27 50 -54 50 -60 0 -15 36 -52 51 -52 5 0 7 -4 4 -10 -3 -5 1
-10 10 -10 12 0 15 -6 10 -21 -5 -14 -3 -20 7 -18 23 3 42 -1 35 -7 -3 -4 5
-28 19 -54 26 -50 119 -146 128 -132 3 5 -8 21 -24 37 -15 15 -26 34 -23 41 3
9 -2 14 -13 14 -9 0 -14 3 -11 7 4 3 -3 11 -16 17 -12 6 -30 26 -39 45 -9 19
-21 38 -27 44 -5 5 -7 24 -4 42 4 27 2 34 -16 40 -11 3 -24 4 -29 1 -9 -6 -82
58 -82 73 0 5 -6 16 -13 23 -7 7 -47 51 -88 98 -116 132 -162 181 -181 191
-10 5 -18 7 -18 4z m415 -415 c3 -5 -1 -10 -9 -10 -9 0 -16 5 -16 10 0 6 4 10
9 10 6 0 13 -4 16 -10z"/>
<path d="M25640 7515 c7 -9 15 -13 17 -11 7 7 -7 26 -19 26 -6 0 -6 -6 2 -15z"/>
<path d="M27232 7480 c0 -14 2 -19 5 -12 2 6 2 18 0 25 -3 6 -5 1 -5 -13z"/>
<path d="M22927 7476 c-4 -10 -1 -13 8 -9 8 3 12 9 9 14 -7 12 -11 11 -17 -5z"/>
<path d="M22974 7455 c-1 -18 7 -33 27 -47 35 -26 35 -28 7 -58 -17 -18 -18
-22 -6 -17 12 4 24 -2 37 -18 10 -14 24 -25 30 -25 16 0 82 -61 78 -73 -4 -14
37 -57 54 -57 17 0 59 -48 59 -68 0 -8 11 -23 25 -34 14 -11 25 -26 25 -34 0
-8 5 -14 10 -14 6 0 10 -7 10 -16 0 -9 6 -14 13 -11 16 5 11 46 -8 67 -8 9
-15 25 -15 36 0 10 -16 35 -35 54 -41 40 -46 59 -9 35 17 -11 30 -13 36 -7 6
6 -8 19 -39 36 -26 15 -55 31 -63 35 -8 5 -14 16 -14 24 1 10 -4 13 -14 10
-12 -5 -14 -1 -8 20 6 26 -8 47 -18 25 -3 -8 -37 21 -88 75 -46 48 -85 87 -88
87 -3 0 -6 -11 -6 -25z"/>
<path d="M17931 7451 c-10 -6 -9 -10 3 -14 8 -3 18 -2 21 3 8 13 -9 20 -24 11z"/>
<path d="M20221 7434 c0 -11 3 -14 6 -6 3 7 2 16 -1 19 -3 4 -6 -2 -5 -13z"/>
<path d="M26576 7435 c4 -8 8 -15 10 -15 2 0 4 7 4 15 0 8 -4 15 -10 15 -5 0
-7 -7 -4 -15z"/>
<path d="M23225 7400 c3 -5 8 -10 11 -10 2 0 4 5 4 10 0 6 -5 10 -11 10 -5 0
-7 -4 -4 -10z"/>
<path d="M27223 7375 c0 -22 2 -30 4 -17 2 12 2 30 0 40 -3 9 -5 -1 -4 -23z"/>
<path d="M18003 7377 c2 -7 14 -14 26 -15 28 -4 20 13 -9 21 -14 3 -20 1 -17
-6z"/>
<path d="M18174 7362 c3 -5 19 -12 36 -15 21 -5 30 -12 30 -27 0 -13 7 -20 20
-20 11 0 20 5 20 10 0 6 -5 10 -11 10 -6 0 -18 9 -27 19 -17 19 -79 40 -68 23z"/>
<path d="M23261 7365 c0 -5 20 -32 44 -60 25 -27 45 -45 45 -40 0 6 -20 33
-45 60 -24 28 -44 46 -44 40z"/>
<path d="M23705 7360 c-3 -5 -1 -10 4 -10 6 0 11 5 11 10 0 6 -2 10 -4 10 -3
0 -8 -4 -11 -10z"/>
<path d="M17751 7356 c2 -2 20 -11 39 -20 l35 -17 -25 20 c-14 11 -31 21 -39
21 -8 0 -12 -2 -10 -4z"/>
<path d="M18058 7343 c7 -3 16 -2 19 1 4 3 -2 6 -13 5 -11 0 -14 -3 -6 -6z"/>
<path d="M26116 7337 c3 -10 9 -15 12 -12 3 3 0 11 -7 18 -10 9 -11 8 -5 -6z"/>
<path d="M18180 7319 c0 -5 4 -9 9 -9 5 0 16 -3 25 -6 9 -3 16 -2 16 4 0 5
-11 12 -25 14 -14 3 -25 1 -25 -3z"/>
<path d="M18318 7324 c-15 -15 -7 -21 45 -32 80 -17 147 -24 147 -15 0 21
-176 64 -192 47z"/>
<path d="M22476 7290 c-32 -36 -45 -60 -31 -60 8 0 47 45 61 73 20 37 13 34
-30 -13z"/>
<path d="M27216 7293 c-15 -95 -24 -325 -12 -312 6 6 28 340 23 346 -3 2 -8
-13 -11 -34z"/>
<path d="M17830 7311 c0 -9 49 -31 80 -36 8 -1 47 -15 85 -30 39 -15 124 -37
190 -50 110 -22 137 -24 123 -10 -5 5 -88 23 -134 29 -11 1 -25 5 -31 9 -6 4
-28 9 -49 13 -22 3 -43 9 -49 14 -11 8 -192 70 -206 70 -5 0 -9 -4 -9 -9z"/>
<path d="M23637 7293 c-12 -19 -11 -77 1 -80 6 -3 12 1 12 8 0 26 54 -38 80
-96 38 -83 65 -145 78 -177 7 -16 16 -28 21 -28 5 0 -1 35 -14 77 -16 50 -21
81 -15 87 15 15 12 29 -5 22 -10 -3 -15 1 -15 12 0 9 -9 28 -20 42 -11 14 -20
31 -20 38 0 7 -6 15 -14 18 -8 3 -27 23 -42 45 -26 38 -38 46 -47 32z"/>
<path d="M20210 7249 c0 -5 5 -7 10 -4 6 3 10 8 10 11 0 2 -4 4 -10 4 -5 0
-10 -5 -10 -11z"/>
<path d="M23360 7237 c0 -2 18 -23 40 -48 23 -24 48 -56 58 -71 9 -16 20 -28
25 -28 11 0 2 14 -57 88 -42 52 -66 74 -66 59z"/>
<path d="M27017 7216 c-11 -27 -8 -36 8 -36 16 0 17 5 6 34 -7 18 -8 18 -14 2z"/>
<path d="M18328 7173 c7 -3 16 -2 19 1 4 3 -2 6 -13 5 -11 0 -14 -3 -6 -6z"/>
<path d="M26951 7144 c0 -11 3 -14 6 -6 3 7 2 16 -1 19 -3 4 -6 -2 -5 -13z"/>
<path d="M20285 7140 c-3 -5 -1 -10 4 -10 6 0 11 5 11 10 0 6 -2 10 -4 10 -3
0 -8 -4 -11 -10z"/>
<path d="M27010 7140 c0 -5 5 -10 11 -10 5 0 7 5 4 10 -3 6 -8 10 -11 10 -2 0
-4 -4 -4 -10z"/>
<path d="M23323 7123 c9 -9 20 -13 24 -9 4 4 1 11 -7 16 -25 16 -35 11 -17 -7z"/>
<path d="M20310 7121 c0 -6 5 -13 10 -16 6 -3 10 1 10 9 0 9 -4 16 -10 16 -5
0 -10 -4 -10 -9z"/>
<path d="M23516 7038 c4 -7 27 -41 51 -75 24 -34 43 -65 43 -68 0 -4 11 -21
24 -38 13 -18 33 -53 45 -79 11 -26 25 -49 30 -52 5 -4 18 -28 27 -54 10 -26
30 -65 45 -87 36 -54 82 -136 91 -160 4 -11 5 0 2 25 -3 25 -14 58 -24 73 -30
49 -94 159 -145 247 -66 116 -175 280 -187 280 -5 0 -6 -6 -2 -12z"/>
<path d="M26946 7035 c4 -8 8 -15 10 -15 2 0 4 7 4 15 0 8 -4 15 -10 15 -5 0
-7 -7 -4 -15z"/>
<path d="M27001 6953 c0 -10 4 -27 9 -38 7 -17 9 -15 9 12 1 17 -3 35 -9 38
-5 3 -10 -2 -9 -12z"/>
<path d="M25812 6940 c7 -10 14 -18 15 -16 6 6 -9 36 -18 36 -5 0 -4 -9 3 -20z"/>
<path d="M26135 6950 c3 -5 8 -10 11 -10 2 0 4 5 4 10 0 6 -5 10 -11 10 -5 0
-7 -4 -4 -10z"/>
<path d="M27202 6940 c0 -14 2 -19 5 -12 2 6 2 18 0 25 -3 6 -5 1 -5 -13z"/>
<path d="M23435 6913 c8 -21 19 -37 25 -35 6 1 13 -11 17 -28 3 -17 10 -33 14
-36 5 -3 9 -15 9 -27 -1 -22 -1 -22 -21 3 -13 15 -19 33 -16 48 3 16 0 22 -8
18 -8 -3 -18 8 -25 24 -18 42 -34 54 -51 34 -8 -10 -9 -18 -2 -22 5 -4 13 -20
17 -35 4 -17 11 -25 18 -21 7 4 8 3 4 -4 -7 -11 7 -42 32 -74 8 -9 14 -23 16
-31 1 -8 8 -22 15 -31 11 -13 11 -19 1 -31 -14 -16 -3 -37 33 -63 10 -8 16
-21 12 -31 -3 -12 3 -22 20 -31 13 -7 22 -17 19 -22 -4 -5 3 -16 15 -24 12 -9
19 -19 16 -24 -3 -5 1 -12 9 -17 8 -4 16 -20 18 -35 2 -15 12 -35 21 -46 9
-10 14 -21 11 -25 -4 -3 3 -21 15 -40 22 -36 28 -62 11 -52 -24 15 -7 -14 26
-43 34 -31 36 -34 20 -51 -15 -16 -15 -20 -2 -31 9 -6 18 -27 22 -46 3 -18 12
-38 19 -44 23 -19 -3 -56 -42 -57 -28 -1 -33 2 -33 21 0 29 -10 39 -27 25 -17
-15 -36 1 -54 44 -7 18 -21 41 -31 51 -10 11 -18 26 -18 34 0 7 -7 20 -15 28
-8 9 -15 24 -15 34 0 10 -4 22 -10 25 -5 3 -10 17 -10 29 0 13 -7 30 -16 37
-14 12 -33 47 -38 74 -1 6 -19 44 -39 85 -52 105 -36 51 33 -115 32 -77 81
-196 110 -265 28 -69 60 -144 71 -167 10 -24 19 -45 19 -48 0 -2 27 -69 60
-148 33 -80 60 -154 60 -165 0 -11 15 -42 34 -68 19 -27 64 -92 101 -144 36
-52 83 -120 105 -150 69 -95 174 -250 192 -282 9 -17 21 -34 26 -37 22 -16 50
-70 57 -111 16 -90 15 -21 0 81 -28 183 -33 206 -43 225 -5 11 -13 48 -16 84
-4 35 -11 70 -17 76 -5 7 -9 16 -8 20 4 16 -21 92 -32 96 -11 4 -69 140 -63
147 8 9 33 -23 39 -50 4 -16 11 -29 16 -29 11 0 11 5 -1 55 -6 22 -12 61 -15
87 -2 26 -11 59 -20 75 -15 27 -16 27 -11 3 3 -14 9 -35 12 -47 15 -53 -34 -8
-51 47 -4 14 -16 37 -26 52 -11 14 -19 32 -19 40 0 7 -12 40 -25 73 -29 71
-43 155 -26 155 6 0 21 -21 33 -47 11 -27 23 -42 25 -35 3 7 1 20 -3 30 -16
36 -75 208 -81 235 -6 31 -11 33 -38 13 -25 -18 -42 -11 -61 26 -12 23 -13 33
-4 42 8 8 13 7 20 -4 5 -8 12 -12 15 -8 4 3 -12 25 -34 47 -23 23 -41 50 -41
60 0 23 -22 40 -28 23 -7 -22 -22 -13 -22 13 0 14 -5 25 -11 25 -7 0 -9 10 -5
26 5 17 3 23 -4 19 -5 -3 -10 -1 -10 4 0 6 5 11 10 11 6 0 10 8 10 19 0 13 -7
18 -22 17 -18 -1 -23 5 -25 33 -4 40 -18 61 -44 61 -19 0 -23 8 -19 48 1 12
-6 25 -14 28 -19 7 -21 31 -3 37 9 3 7 9 -5 24 -10 11 -18 24 -18 30 0 5 -10
18 -21 29 -16 14 -23 16 -26 6 -3 -6 -9 -10 -13 -7 -5 3 -7 12 -3 20 3 10 -1
15 -12 15 -11 0 -15 6 -11 18 4 11 -3 27 -16 42 -13 13 -27 38 -33 55 -5 16
-17 31 -27 33 -14 3 -15 -1 -3 -35z m110 -183 c9 0 12 -6 9 -15 -9 -22 -34 1
-33 29 1 17 2 17 6 4 2 -10 11 -18 18 -18z m75 -121 c0 -6 -4 -7 -10 -4 -5 3
-10 11 -10 16 0 6 5 7 10 4 6 -3 10 -11 10 -16z m187 -341 c-3 -8 -6 -5 -6 6
-1 11 2 17 5 13 3 -3 4 -12 1 -19z m-37 -8 c0 -5 -5 -10 -11 -10 -5 0 -7 5 -4
10 3 6 8 10 11 10 2 0 4 -4 4 -10z m175 -160 c-6 -9 -9 -9 -16 1 -10 17 0 34
13 21 6 -6 7 -16 3 -22z m12 -57 c3 -7 -4 -9 -16 -6 -12 3 -18 9 -15 15 7 11
26 6 31 -9z m-278 -70 c1 -7 -6 -10 -14 -7 -16 6 -20 35 -8 48 7 7 21 -18 22
-41z m32 -59 c5 -15 7 -29 4 -32 -9 -9 -33 31 -28 45 7 19 12 16 24 -13z m93
3 c18 -17 32 -82 17 -73 -6 4 -11 13 -11 20 0 7 -9 21 -20 31 -11 10 -20 22
-20 27 0 12 20 10 34 -5z m-28 -54 c-7 -7 -26 7 -26 19 0 6 6 6 15 -2 9 -7 13
-15 11 -17z m-42 -19 c21 -20 20 -21 -7 -21 -15 0 -23 6 -24 18 -2 23 10 24
31 3z m127 -41 c5 -14 8 -34 6 -42 -3 -13 -5 -12 -11 4 -4 11 -12 28 -17 37
-12 23 -11 28 1 28 6 0 15 -12 21 -27z m-85 -26 c6 -13 7 -32 3 -43 -6 -15 -8
-16 -8 -2 -1 9 -5 18 -10 20 -4 2 -12 13 -15 26 -10 30 15 29 30 -1z m284
-122 c5 -14 12 -38 15 -53 4 -21 1 -17 -14 13 -20 40 -26 65 -16 65 3 0 10
-11 15 -25z m49 -140 c0 -5 -6 -1 -14 9 -8 11 -15 27 -15 35 1 17 29 -26 29
-44z m106 -425 c3 -5 -1 -10 -9 -10 -9 0 -16 5 -16 10 0 6 4 10 9 10 6 0 13
-4 16 -10z m-35 -65 c0 -6 9 -20 21 -31 17 -16 22 -16 29 -4 7 11 10 9 10 -11
0 -38 -25 -57 -39 -30 -6 11 -11 26 -11 34 0 8 -9 22 -20 32 -24 22 -29 55 -5
35 8 -7 15 -18 15 -25z"/>
<path d="M17828 6883 c7 -3 16 -2 19 1 4 3 -2 6 -13 5 -11 0 -14 -3 -6 -6z"/>
<path d="M17933 6873 c15 -2 37 -2 50 0 12 2 0 4 -28 4 -27 0 -38 -2 -22 -4z"/>
<path d="M18008 6863 c-45 -12 0 -54 49 -46 22 4 33 2 33 -6 0 -9 5 -9 21 0
17 8 23 8 29 -2 5 -7 46 -20 93 -30 46 -9 94 -20 105 -24 13 -4 22 -2 22 4 0
6 -7 11 -15 11 -8 0 -15 5 -15 10 0 6 5 10 10 10 6 0 5 8 -2 20 -7 11 -20 20
-28 19 -8 -1 -24 2 -34 6 -13 6 -21 4 -24 -3 -5 -17 -22 -15 -22 2 0 10 -9 14
-27 12 -16 -1 -35 1 -43 5 -20 9 -131 19 -152 12z m47 -14 c10 -14 1 -21 -19
-13 -9 3 -13 10 -10 15 7 12 21 11 29 -2z m102 -31 c-3 -8 -6 -5 -6 6 -1 11 2
17 5 13 3 -3 4 -12 1 -19z"/>
<path d="M17808 6853 c7 -3 16 -2 19 1 4 3 -2 6 -13 5 -11 0 -14 -3 -6 -6z"/>
<path d="M23855 6833 c7 -30 21 -50 30 -41 8 8 -16 68 -27 68 -6 0 -7 -11 -3
-27z"/>
<path d="M17888 6843 c7 -3 16 -2 19 1 4 3 -2 6 -13 5 -11 0 -14 -3 -6 -6z"/>
<path d="M17950 6840 c0 -6 7 -10 15 -10 8 0 15 2 15 4 0 2 -7 6 -15 10 -8 3
-15 1 -15 -4z"/>
<path d="M25916 6827 c3 -10 9 -15 12 -12 3 3 0 11 -7 18 -10 9 -11 8 -5 -6z"/>
<path d="M26310 6824 c0 -16 48 -111 60 -119 6 -3 22 -27 35 -53 14 -26 41
-69 60 -95 29 -41 33 -51 23 -71 -9 -21 -6 -29 23 -60 19 -22 39 -34 47 -31
16 6 42 -11 42 -27 0 -6 -7 -5 -15 2 -11 9 -15 9 -15 1 0 -23 31 -71 45 -71
14 0 51 -57 47 -72 -1 -5 7 -17 18 -28 11 -11 20 -28 20 -37 0 -10 12 -29 25
-42 14 -13 25 -30 25 -38 0 -8 8 -27 19 -41 18 -27 36 -73 45 -122 3 -14 14
-30 25 -37 18 -11 19 -9 19 38 1 41 -2 49 -18 49 -17 0 -44 50 -34 64 2 3 1 4
-2 1 -4 -2 -16 15 -26 38 -11 23 -32 64 -46 92 -14 27 -37 72 -51 100 -14 28
-35 64 -47 80 -12 17 -24 42 -28 57 -3 14 -17 39 -30 55 -13 15 -26 38 -30 51
-4 12 -11 22 -16 22 -5 0 -28 28 -51 63 -24 34 -45 64 -49 67 -3 3 -23 32 -43
65 -46 74 -76 114 -77 99z"/>
<path d="M18370 6810 c14 -4 34 -8 45 -8 16 0 15 2 -5 8 -14 4 -34 8 -45 8
-16 0 -15 -2 5 -8z"/>
<path d="M25940 6803 c0 -15 160 -193 355 -393 31 -32 122 -137 149 -173 16
-21 31 -36 33 -33 7 6 -93 143 -134 184 -17 16 -22 30 -18 45 5 17 4 19 -4 7
-8 -12 -13 -10 -31 10 -12 14 -39 44 -61 68 -22 23 -38 42 -35 42 4 0 -2 8
-11 18 -10 10 -24 17 -31 14 -8 -3 -10 1 -6 12 4 10 1 16 -9 16 -14 0 -32 26
-29 43 1 4 -4 7 -11 7 -8 0 -39 26 -69 58 -66 68 -88 88 -88 75z"/>
<path d="M18468 6793 c7 -3 16 -2 19 1 4 3 -2 6 -13 5 -11 0 -14 -3 -6 -6z"/>
<path d="M18368 6783 c7 -3 16 -2 19 1 4 3 -2 6 -13 5 -11 0 -14 -3 -6 -6z"/>
<path d="M18520 6780 c19 -13 30 -13 30 0 0 6 -10 10 -22 10 -19 0 -20 -2 -8
-10z"/>
<path d="M26128 6783 c7 -3 16 -2 19 1 4 3 -2 6 -13 5 -11 0 -14 -3 -6 -6z"/>
<path d="M27212 6765 c0 -16 2 -22 5 -12 2 9 2 23 0 30 -3 6 -5 -1 -5 -18z"/>
<path d="M18638 6753 c7 -3 16 -2 19 1 4 3 -2 6 -13 5 -11 0 -14 -3 -6 -6z"/>
<path d="M18555 6704 c28 -7 55 -12 60 -10 13 4 -64 26 -90 25 -11 0 3 -7 30
-15z"/>
<path d="M23920 6684 c0 -8 5 -12 10 -9 6 4 8 11 5 16 -9 14 -15 11 -15 -7z"/>
<path d="M18698 6683 c7 -3 16 -2 19 1 4 3 -2 6 -13 5 -11 0 -14 -3 -6 -6z"/>
<path d="M23310 6689 c0 -14 31 -81 36 -76 3 3 -4 22 -15 44 -11 21 -20 35
-21 32z"/>
<path d="M18735 6670 c3 -5 18 -10 33 -9 24 0 25 1 7 9 -28 12 -47 12 -40 0z"/>
<path d="M18801 6656 c2 -2 27 -6 54 -9 34 -4 42 -3 25 3 -25 8 -87 13 -79 6z"/>
<path d="M23935 6623 c3 -15 12 -31 18 -35 6 -3 12 -14 13 -23 3 -21 12 -30
21 -22 6 7 3 15 -27 80 -17 35 -34 35 -25 0z"/>
<path d="M18918 6633 c6 -2 18 -2 25 0 6 3 1 5 -13 5 -14 0 -19 -2 -12 -5z"/>
<path d="M18970 6630 c20 -13 53 -13 45 0 -3 6 -18 10 -33 10 -21 0 -24 -2
-12 -10z"/>
<path d="M22760 6623 c0 -19 11 -43 21 -43 13 0 11 14 -6 36 -8 10 -15 14 -15
7z"/>
<path d="M19238 6583 c7 -3 16 -2 19 1 4 3 -2 6 -13 5 -11 0 -14 -3 -6 -6z"/>
<path d="M27191 6552 c-1 -7 8 -31 18 -53 11 -22 18 -46 15 -52 -2 -7 18 -37
46 -67 53 -57 70 -49 22 10 -42 51 -52 74 -53 122 -1 24 -3 35 -6 26 -6 -24
-18 -22 -31 5 -6 12 -11 16 -11 9z"/>
<path d="M26230 6531 c0 -5 7 -12 16 -15 14 -5 15 -4 4 9 -14 17 -20 19 -20 6z"/>
<path d="M26915 6531 c5 -8 9 -29 11 -45 1 -17 7 -58 13 -91 7 -33 17 -85 22
-115 6 -30 19 -80 29 -110 10 -30 24 -75 31 -100 18 -63 21 -71 46 -128 8 -18
16 -45 18 -60 2 -15 4 -27 5 -27 1 0 3 -7 5 -16 1 -9 10 -32 20 -52 9 -19 17
-50 17 -68 1 -19 4 -36 7 -39 6 -5 61 -162 61 -175 0 -14 -32 19 -41 43 -5 14
-12 22 -16 19 -3 -4 6 -31 21 -62 14 -30 38 -81 53 -112 16 -32 28 -60 28 -63
1 -3 9 -20 19 -39 17 -32 17 -36 2 -46 -15 -11 -15 -17 0 -66 9 -30 22 -66 30
-81 17 -31 -2 -53 -18 -23 -6 10 -13 13 -17 7 -10 -17 -43 -18 -51 -2 -21 41
-50 109 -61 144 -6 22 -21 60 -33 85 -11 25 -21 51 -21 56 -1 19 -39 75 -52
75 -18 0 -27 21 -13 30 8 5 5 9 -9 13 -33 8 -44 -23 -30 -80 7 -27 18 -55 26
-64 7 -9 11 -23 8 -31 -3 -8 1 -21 10 -28 8 -7 15 -24 15 -37 0 -14 9 -38 20
-53 14 -20 18 -37 14 -59 -4 -21 -3 -31 5 -31 8 0 10 -8 6 -20 -4 -11 -2 -20
4 -20 14 0 38 -54 51 -114 9 -39 8 -51 -2 -58 -9 -5 -7 -8 7 -8 15 0 16 -3 7
-12 -17 -17 -15 -41 3 -34 11 4 21 -14 39 -72 31 -93 54 -167 66 -207 34 -120
54 -181 62 -190 11 -11 2 29 -18 90 -16 46 -17 65 -6 65 12 0 38 -80 77 -240
36 -145 63 -253 93 -364 l15 -59 19 48 c15 37 17 54 9 74 -6 14 -20 69 -32
121 -11 52 -26 113 -33 135 -6 22 -10 50 -8 63 3 23 4 23 23 6 10 -9 19 -28
19 -41 0 -13 6 -34 14 -46 8 -12 17 -44 21 -72 3 -27 11 -67 18 -89 10 -36 11
-37 20 -15 4 13 10 39 13 57 3 25 0 32 -14 32 -13 0 -14 2 -3 9 21 14 -2 117
-45 202 -19 38 -8 69 26 69 15 0 33 7 40 14 10 13 5 14 -34 11 -40 -3 -46 -1
-46 16 0 10 -4 19 -9 19 -5 0 -14 13 -19 29 -8 23 -7 31 4 35 10 4 14 -2 14
-18 0 -12 11 -33 25 -46 28 -26 42 -22 26 8 -6 12 -11 30 -11 41 0 12 -5 21
-11 21 -6 0 -9 9 -6 20 3 11 -2 34 -10 51 -8 17 -17 48 -20 69 -3 22 -9 37
-14 34 -5 -3 -9 4 -9 15 0 12 5 21 10 21 6 0 10 -5 10 -11 0 -6 7 -9 15 -5 10
4 15 -1 15 -14 0 -11 -4 -20 -10 -20 -5 0 -10 -9 -10 -20 0 -21 15 -27 25 -10
10 16 25 1 25 -24 0 -13 7 -29 15 -36 8 -7 15 -23 15 -37 0 -13 10 -37 22 -54
13 -17 23 -44 24 -62 1 -17 7 -33 13 -35 6 -2 11 -12 11 -22 0 -10 4 -21 9
-24 26 -16 85 364 102 655 l11 194 -51 102 c-28 56 -51 105 -51 108 0 16 -132
269 -155 298 -14 18 -29 37 -35 43 -5 7 -6 21 -3 32 3 14 -2 24 -15 31 -10 5
-27 30 -36 55 -10 25 -24 50 -32 54 -9 5 -17 24 -20 43 -3 20 -18 46 -36 64
-28 28 -30 28 -25 8 3 -13 1 -23 -4 -23 -5 0 -9 7 -9 15 0 8 -4 23 -9 33 -22
43 -60 129 -66 150 -4 12 -17 42 -31 65 -13 23 -24 50 -24 59 0 19 -16 33 -23
21 -3 -5 10 -53 28 -108 53 -162 50 -152 31 -136 -9 7 -16 19 -16 25 -1 21
-130 266 -141 266 -14 0 -2 -53 14 -62 10 -5 17 -16 17 -24 0 -8 9 -31 20 -51
11 -21 20 -54 20 -75 0 -20 6 -41 13 -45 21 -13 38 -84 25 -100 -6 -8 -18 -11
-26 -8 -9 3 -19 0 -23 -6 -7 -12 -18 19 -34 96 -5 24 -4 27 5 15 10 -13 11
-12 6 3 -3 10 -6 23 -6 28 0 6 -4 7 -10 4 -6 -4 -10 5 -10 20 0 15 -6 41 -14
58 -8 18 -33 77 -57 132 -23 55 -49 107 -57 115 -12 12 -13 12 -7 1z m324
-484 c1 -5 -3 -5 -9 -2 -5 3 -10 16 -9 28 0 21 1 21 9 2 5 -11 9 -24 9 -28z
m-74 -36 c-10 -16 -25 -3 -25 22 0 20 1 20 16 5 9 -9 13 -21 9 -27z m-25 -58
c12 -38 28 -80 36 -95 22 -41 42 -115 35 -127 -4 -6 -13 13 -20 41 -8 29 -17
58 -21 63 -7 9 -60 168 -60 180 0 19 11 -4 30 -62z m157 -243 c65 -238 80
-300 72 -300 -5 0 -9 5 -9 11 0 6 -25 74 -56 152 -56 141 -67 190 -57 236 5
22 6 22 16 5 6 -11 21 -57 34 -104z m206 -420 c3 -11 1 -18 -4 -14 -5 3 -9 12
-9 20 0 20 7 17 13 -6z m-203 -109 c0 -8 7 -19 17 -26 11 -8 14 -18 9 -31 -7
-17 -10 -15 -26 16 -20 37 -29 99 -10 70 5 -8 10 -21 10 -29z m44 -97 c9 -3
16 -16 16 -28 -1 -21 -1 -21 -12 -1 -6 11 -16 23 -22 27 -13 9 -3 10 18 2z
m-84 -50 c0 -9 -7 -14 -17 -12 -25 5 -28 28 -4 28 12 0 21 -6 21 -16z m90 -80
c0 -13 -4 -24 -9 -24 -13 0 -41 58 -41 84 1 19 2 19 25 -7 14 -15 25 -39 25
-53z m-80 26 c30 -31 39 -47 19 -34 -8 4 -9 0 -4 -15 5 -15 2 -21 -9 -21 -10
0 -16 9 -16 23 0 12 -7 31 -15 41 -15 20 -19 36 -10 36 3 0 19 -14 35 -30z
m110 -99 c0 -6 7 -11 15 -11 8 0 14 3 13 8 -2 4 2 9 7 11 6 3 11 -3 13 -12 2
-12 -3 -17 -17 -17 -12 0 -21 -5 -21 -11 0 -6 -8 -9 -17 -7 -17 3 -37 54 -27
70 6 10 34 -16 34 -31z m-80 -41 c0 -13 -1 -13 -10 0 -5 8 -10 22 -10 30 0 13
1 13 10 0 5 -8 10 -22 10 -30z m165 -38 c-2 -2 -13 -1 -26 3 -16 5 -18 9 -9
15 11 7 43 -10 35 -18z m-65 -1 c0 -11 5 -23 10 -26 13 -8 13 -45 0 -45 -12 0
-16 9 -24 58 -3 18 -1 32 4 32 6 0 10 -9 10 -19z m-111 -185 c12 -37 21 -73
21 -79 0 -18 -14 2 -17 26 -2 12 -7 31 -12 42 -5 11 -11 29 -14 40 -3 11 -8
29 -12 40 -6 14 -5 17 3 10 5 -5 20 -41 31 -79z m164 42 c17 -2 22 -11 24 -33
2 -28 1 -28 -5 -5 -5 16 -15 25 -27 25 -14 0 -21 7 -22 25 -1 14 1 17 3 8 3
-9 15 -18 27 -20z m-87 -23 c4 -21 3 -27 -4 -20 -6 6 -14 24 -18 40 -4 21 -3
27 4 20 6 -5 14 -23 18 -40z m98 -47 c3 -16 2 -28 -3 -28 -11 0 -32 56 -23 64
8 9 18 -5 26 -36z m-68 -33 c5 -29 9 -33 20 -24 11 9 14 6 14 -15 0 -23 -3
-25 -19 -17 -26 15 -53 91 -31 91 5 0 12 -16 16 -35z m72 -142 c-10 -12 -13
-12 -25 0 -8 7 -11 21 -7 31 6 16 8 16 25 0 15 -13 16 -20 7 -31z m2 -54 c0
-5 -4 -9 -10 -9 -5 0 -10 7 -10 16 0 8 5 12 10 9 6 -3 10 -10 10 -16z m17 -31
c-3 -7 -5 -2 -5 12 0 14 2 19 5 13 2 -7 2 -19 0 -25z"/>
<path d="M20093 6460 c21 -14 77 -31 77 -24 0 5 -31 18 -70 28 -22 6 -22 5 -7
-4z"/>
<path d="M27100 6461 c0 -5 5 -13 10 -16 6 -3 10 -2 10 4 0 5 -4 13 -10 16 -5
3 -10 2 -10 -4z"/>
<path d="M26750 6451 c0 -6 4 -13 10 -16 6 -3 7 1 4 9 -7 18 -14 21 -14 7z"/>
<path d="M15760 6396 l0 -55 38 -10 c66 -18 201 -41 237 -41 57 0 203 -36 336
-84 68 -24 158 -54 199 -66 78 -23 342 -155 493 -247 49 -29 91 -53 94 -53 7
0 228 -133 380 -228 126 -79 244 -193 385 -373 96 -122 148 -191 179 -239 34
-50 88 -175 119 -275 7 -22 17 -45 22 -51 8 -11 15 -175 17 -417 1 -117 1
-118 23 -115 33 4 48 45 53 139 7 122 -24 381 -46 395 -5 3 -9 18 -9 33 0 28
-27 118 -40 136 -5 6 -16 37 -25 70 -34 117 -113 243 -246 390 -39 44 -104
118 -143 165 -39 47 -82 95 -96 106 -80 68 -191 144 -264 181 -28 14 -81 45
-118 69 -37 24 -69 44 -72 44 -2 0 -33 16 -68 37 -114 65 -152 86 -223 123
-38 20 -110 60 -160 89 -85 49 -297 141 -327 141 -7 0 -30 9 -50 20 -20 11
-58 25 -85 31 -26 7 -52 15 -58 19 -15 12 -185 49 -230 51 -35 2 -114 17 -180
35 -11 3 -38 9 -60 14 -22 5 -48 12 -57 15 -16 6 -18 0 -18 -49z"/>
<path d="M20566 6408 c-3 -24 -7 -54 -9 -68 -1 -16 -8 -24 -17 -21 -23 5 -172
2 -179 -4 -7 -8 58 -64 87 -76 12 -5 58 -34 102 -64 83 -58 115 -71 75 -31
-16 16 -22 31 -18 45 5 20 33 31 33 13 0 -8 18 -32 58 -77 10 -11 24 -34 31
-52 16 -40 41 -52 41 -19 0 14 -6 26 -12 29 -7 2 -10 8 -6 12 4 4 47 -33 94
-84 48 -50 91 -91 96 -91 5 0 2 7 -6 16 -9 8 -16 26 -16 39 0 13 -4 27 -10 30
-5 3 -10 13 -10 21 0 11 6 13 21 9 15 -5 19 -4 15 4 -4 6 -14 11 -22 11 -8 0
-21 15 -29 33 -7 17 -23 38 -35 45 -12 7 -19 16 -16 20 4 3 36 -23 72 -59 46
-44 64 -57 59 -41 -8 27 -1 28 70 1 31 -12 59 -19 61 -16 3 3 -16 13 -43 23
-101 39 -268 139 -294 176 -3 4 -26 14 -53 22 -86 26 -96 38 -96 109 0 57 -11
87 -31 87 -4 0 -10 -19 -13 -42z m-68 -140 c42 -15 62 -27 62 -38 0 -29 -10
-29 -60 4 -27 17 -57 36 -67 43 -28 19 -4 15 65 -9z m252 -48 c6 -11 9 -20 7
-20 -2 0 -12 9 -22 20 -10 11 -13 20 -7 20 6 0 16 -9 22 -20z m73 -57 c-15 -5
-53 14 -53 27 0 4 14 1 32 -8 18 -8 27 -17 21 -19z"/>
<path d="M20200 6420 c0 -5 7 -10 16 -10 8 0 12 5 9 10 -3 6 -10 10 -16 10 -5
0 -9 -4 -9 -10z"/>
<path d="M24014 6410 c3 -14 6 -28 6 -32 0 -5 5 -8 11 -8 12 0 2 39 -13 55 -7
7 -9 2 -4 -15z"/>
<path d="M20248 6404 c6 -3 10 -9 8 -12 -2 -4 6 -7 17 -7 12 -1 33 -4 47 -8
19 -5 18 -3 -5 7 -16 7 -41 16 -55 20 -14 3 -19 3 -12 0z"/>
<path d="M23765 6399 c-10 -15 3 -25 16 -12 7 7 7 13 1 17 -6 3 -14 1 -17 -5z"/>
<path d="M24081 6381 c-10 -6 -9 -10 3 -14 8 -3 18 -2 21 3 8 13 -9 20 -24 11z"/>
<path d="M26790 6384 c0 -5 7 -18 15 -28 8 -11 15 -16 15 -10 0 5 -7 18 -15
28 -8 11 -15 16 -15 10z"/>
<path d="M24040 6346 c0 -9 5 -16 10 -16 6 0 10 4 10 9 0 6 -4 13 -10 16 -5 3
-10 -1 -10 -9z"/>
<path d="M26526 6347 c3 -10 9 -15 12 -12 3 3 0 11 -7 18 -10 9 -11 8 -5 -6z"/>
<path d="M23820 6333 c0 -13 5 -23 10 -23 13 0 13 11 0 30 -8 12 -10 11 -10
-7z"/>
<path d="M24120 6326 c0 -8 5 -18 10 -21 6 -3 10 3 10 14 0 12 -4 21 -10 21
-5 0 -10 -6 -10 -14z"/>
<path d="M22759 6300 c-1 -19 -3 -60 -5 -90 -3 -30 -2 -106 2 -168 5 -96 8
-111 20 -101 11 9 11 15 3 25 -9 11 -8 14 1 14 6 0 20 10 30 23 17 20 19 20
25 5 10 -26 28 -22 42 9 9 18 9 30 3 38 -7 9 -6 14 5 18 24 10 7 63 -49 148
-28 43 -56 86 -63 96 -10 16 -12 14 -14 -17z"/>
<path d="M24050 6311 c0 -4 9 -25 19 -47 11 -22 23 -52 26 -67 4 -15 11 -30
16 -33 5 -3 9 -14 9 -25 0 -12 7 -19 20 -19 19 0 18 2 -6 46 -14 25 -23 53
-19 61 3 9 -3 24 -15 35 -12 12 -19 27 -15 37 3 12 -1 17 -15 18 -11 1 -20 -2
-20 -6z"/>
<path d="M26700 6279 c0 -5 5 -7 10 -4 6 3 10 8 10 11 0 2 -4 4 -10 4 -5 0
-10 -5 -10 -11z"/>
<path d="M27345 6230 c3 -24 9 -47 13 -50 13 -9 48 -74 55 -102 6 -22 67 -141
97 -188 6 -8 15 -26 20 -39 6 -13 13 -22 15 -19 3 3 -8 31 -24 64 -25 50 -131
272 -170 354 -10 22 -11 20 -6 -20z"/>
<path d="M26875 6221 c7 -21 24 -56 37 -77 13 -22 22 -47 20 -58 -3 -13 0 -16
9 -11 9 6 11 2 7 -12 -3 -13 1 -24 13 -31 17 -11 17 -9 3 26 -18 43 -96 202
-100 202 -2 0 3 -17 11 -39z"/>
<path d="M24160 6238 c0 -7 -3 -24 -7 -38 -6 -22 -5 -24 10 -12 9 8 22 10 28
6 9 -5 10 -2 6 10 -4 10 -7 24 -7 32 0 8 -7 14 -15 14 -8 0 -15 -6 -15 -12z"/>
<path d="M24200 6151 c0 -16 12 -41 20 -41 4 0 5 11 2 25 -4 23 -22 36 -22 16z"/>
<path d="M26521 6130 c14 -31 19 -36 19 -24 0 6 -7 19 -16 30 -14 18 -14 18
-3 -6z"/>
<path d="M27080 6125 c0 -8 4 -15 10 -15 5 0 7 7 4 15 -4 8 -8 15 -10 15 -2 0
-4 -7 -4 -15z"/>
<path d="M27295 6119 c-10 -15 3 -25 16 -12 7 7 7 13 1 17 -6 3 -14 1 -17 -5z"/>
<path d="M20556 6095 c-3 -9 -10 -120 -16 -248 -6 -128 -14 -259 -20 -292 -5
-33 -12 -87 -17 -120 -9 -73 -8 -601 2 -644 7 -33 31 -41 53 -19 15 15 16 120
1 207 -13 86 -14 362 -1 436 6 33 14 101 17 150 3 50 9 131 14 180 13 149 13
335 0 351 -15 18 -25 18 -33 -1z"/>
<path d="M24150 6061 c10 -27 28 -68 38 -92 11 -24 26 -62 32 -84 7 -22 16
-44 20 -50 4 -5 10 -23 14 -40 4 -16 11 -32 14 -35 7 -5 25 -53 88 -230 18
-52 38 -103 43 -112 6 -9 14 -36 17 -60 4 -24 10 -47 14 -53 10 -13 47 -167
56 -233 5 -43 9 -49 20 -37 19 19 19 59 -1 51 -8 -3 -15 -1 -15 3 0 5 5 11 11
13 8 3 8 15 1 43 -6 22 -12 60 -13 85 -3 43 -6 54 -29 100 -5 11 -10 28 -10
37 0 10 -6 29 -13 43 -7 14 -14 40 -15 58 -3 31 -2 32 22 22 16 -6 27 -6 31 0
6 9 -19 15 -55 12 -14 -1 -22 13 -50 83 -4 11 -12 31 -18 45 -6 14 -17 45 -24
70 -6 25 -15 47 -18 50 -12 9 -29 70 -24 84 3 8 -6 25 -21 40 -14 14 -28 39
-31 56 -4 17 -11 33 -15 36 -5 3 -9 17 -9 31 0 30 -49 112 -67 113 -9 0 -7
-14 7 -49z"/>
<path d="M24208 6076 c-4 -19 1 -27 20 -35 30 -14 44 -4 19 14 -10 7 -16 18
-15 25 2 7 -2 14 -8 17 -6 2 -14 -7 -16 -21z"/>
<path d="M23655 6079 c-10 -15 3 -25 16 -12 7 7 7 13 1 17 -6 3 -14 1 -17 -5z"/>
<path d="M26720 6076 c0 -9 5 -16 10 -16 6 0 10 4 10 9 0 6 -4 13 -10 16 -5 3
-10 -1 -10 -9z"/>
<path d="M25420 6036 c0 -7 7 -19 15 -26 12 -10 15 -9 15 8 0 11 -7 22 -15 26
-9 3 -15 0 -15 -8z"/>
<path d="M26580 6037 c0 -10 14 -51 32 -90 41 -95 105 -292 113 -353 10 -71
34 -182 52 -237 15 -47 16 -48 27 -25 7 13 9 28 4 34 -4 6 -5 14 -2 17 4 3 -1
24 -10 47 -9 22 -16 52 -16 65 0 14 -4 34 -10 45 -5 11 -14 28 -18 38 -5 9
-14 42 -21 72 -7 30 -19 75 -27 100 -8 25 -14 53 -14 63 0 9 -4 17 -10 17 -5
0 -10 6 -10 14 0 8 -20 59 -45 113 -24 54 -45 90 -45 80z"/>
<path d="M26711 6041 c-8 -6 -9 -11 -3 -15 6 -3 14 -1 17 5 9 14 2 20 -14 10z"/>
<path d="M20992 5990 c0 -14 2 -19 5 -12 2 6 2 18 0 25 -3 6 -5 1 -5 -13z"/>
<path d="M24253 5973 c9 -9 19 -14 23 -11 10 10 -6 28 -24 28 -15 0 -15 -1 1
-17z"/>
<path d="M22890 5966 c0 -2 7 -6 15 -10 8 -3 15 -1 15 4 0 6 -7 10 -15 10 -8
0 -15 -2 -15 -4z"/>
<path d="M24290 5945 c0 -8 2 -15 4 -15 2 0 6 7 10 15 3 8 1 15 -4 15 -6 0
-10 -7 -10 -15z"/>
<path d="M20997 5924 c-3 -16 5 -54 20 -93 14 -36 27 -75 30 -86 7 -23 102
-195 108 -195 10 0 -24 89 -48 127 -15 24 -27 47 -27 53 0 5 -13 36 -30 67
-16 32 -32 78 -35 102 -6 54 -11 60 -18 25z"/>
<path d="M27001 5940 c0 -18 27 -79 28 -64 1 7 -6 27 -14 45 -8 19 -14 27 -14
19z"/>
<path d="M25488 5928 c-4 -10 -1 -24 7 -32 9 -8 12 -22 8 -32 -4 -12 -3 -15 5
-10 12 7 13 6 17 -30 1 -11 9 -31 18 -45 8 -13 18 -43 22 -66 4 -24 11 -43 16
-43 5 0 9 -5 9 -11 0 -6 18 -49 40 -95 22 -47 40 -87 40 -90 0 -3 6 -20 14
-37 61 -137 124 -287 166 -397 9 -25 24 -61 33 -80 8 -19 25 -63 38 -98 12
-34 26 -65 30 -68 13 -8 11 11 -5 48 -19 46 -38 100 -41 118 -1 8 -7 28 -14
43 -6 16 -11 31 -11 34 0 3 -6 19 -13 36 -17 39 -31 79 -66 182 -15 44 -37
100 -49 124 -12 25 -22 51 -22 59 0 8 -8 26 -18 40 -11 15 -24 48 -31 74 -6
26 -22 64 -36 84 -14 20 -25 41 -25 46 0 5 -16 42 -35 82 -19 41 -35 78 -35
83 0 6 -9 18 -20 28 -11 10 -17 22 -14 26 3 5 1 9 -5 9 -5 0 -11 8 -13 18 -3
16 -4 16 -10 0z"/>
<path d="M26801 5884 c0 -11 3 -14 6 -6 3 7 2 16 -1 19 -3 4 -6 -2 -5 -13z"/>
<path d="M25747 5850 c3 -19 11 -44 18 -55 6 -11 18 -41 26 -67 7 -27 16 -48
20 -48 3 0 14 -24 24 -54 10 -30 23 -52 29 -49 5 4 7 -1 3 -10 -3 -10 -2 -17
3 -17 6 0 10 -5 10 -11 0 -6 10 -25 23 -42 12 -18 22 -41 23 -52 0 -11 3 -31
7 -45 4 -14 4 -19 1 -12 -3 6 -10 12 -15 12 -5 0 -4 -9 3 -20 12 -18 13 -18
32 -2 11 9 16 11 12 5 -4 -7 -2 -21 3 -30 7 -13 10 -14 11 -4 0 17 39 -39 69
-101 12 -26 33 -63 46 -82 24 -35 110 -235 125 -291 12 -44 51 -133 83 -189
15 -27 27 -55 27 -64 0 -8 20 -52 44 -96 24 -45 58 -108 76 -141 17 -33 40
-69 50 -80 24 -28 40 -60 40 -83 0 -11 7 -22 15 -26 24 -9 25 -10 -79 186 -50
94 -194 401 -212 453 -8 22 -21 54 -28 70 -51 109 -94 205 -106 235 -8 19 -16
37 -20 40 -3 3 -11 19 -18 35 -12 27 -39 76 -170 303 -18 31 -55 104 -82 162
-99 209 -100 210 -93 170z"/>
<path d="M26856 5851 c-10 -15 19 -49 31 -37 4 4 3 10 -3 14 -6 4 -13 14 -16
22 -3 11 -6 11 -12 1z"/>
<path d="M26885 5850 c-3 -5 1 -10 10 -10 9 0 13 5 10 10 -3 6 -8 10 -10 10
-2 0 -7 -4 -10 -10z"/>
<path d="M24300 5840 c0 -13 18 -22 24 -11 3 5 -1 11 -9 15 -8 3 -15 1 -15 -4z"/>
<path d="M27037 5828 c6 -7 16 -35 22 -63 14 -57 49 -135 61 -135 7 0 -4 37
-27 90 -7 14 -19 46 -29 73 -9 26 -21 47 -27 47 -6 0 -6 -4 0 -12z"/>
<path d="M24050 5828 c0 -13 39 -110 40 -98 0 25 -20 89 -30 95 -6 4 -10 5
-10 3z"/>
<path d="M24334 5784 c3 -9 6 -18 6 -20 0 -2 10 -3 23 -3 16 1 18 2 5 6 -10 2
-18 11 -18 19 0 8 -5 14 -11 14 -6 0 -8 -7 -5 -16z"/>
<path d="M25230 5733 c4 -16 33 -81 64 -146 31 -64 56 -120 56 -123 0 -4 15
-38 33 -78 19 -39 42 -93 52 -121 20 -56 35 -78 35 -53 0 9 -4 20 -10 23 -5 3
-10 13 -10 21 0 43 -167 421 -196 445 -8 6 -14 20 -14 30 0 10 -4 20 -9 24 -6
3 -6 -5 -1 -22z"/>
<path d="M26900 5723 c0 -35 14 -60 25 -44 5 9 10 9 20 1 8 -7 15 -7 19 -1 4
5 2 12 -4 16 -5 3 -10 17 -10 31 0 19 -5 24 -25 24 -21 0 -25 -5 -25 -27z"/>
<path d="M25685 5721 c-3 -5 -1 -12 5 -16 5 -3 10 1 10 9 0 18 -6 21 -15 7z"/>
<path d="M24830 5698 c0 -16 5 -28 10 -28 13 0 13 20 0 40 -8 12 -10 9 -10
-12z"/>
<path d="M21010 5701 c0 -5 5 -13 10 -16 6 -3 10 -2 10 4 0 5 -4 13 -10 16 -5
3 -10 2 -10 -4z"/>
<path d="M25370 5695 c0 -5 5 -17 10 -25 5 -8 10 -10 10 -5 0 6 -5 17 -10 25
-5 8 -10 11 -10 5z"/>
<path d="M26927 5656 c-3 -8 0 -20 8 -26 8 -6 15 -20 17 -31 3 -18 5 -18 22
-6 17 13 17 15 -12 46 -23 25 -31 29 -35 17z"/>
<path d="M21065 5626 c10 -14 19 -26 22 -26 7 0 -17 39 -28 46 -6 3 -3 -5 6
-20z"/>
<path d="M24826 5637 c3 -10 9 -15 12 -12 3 3 0 11 -7 18 -10 9 -11 8 -5 -6z"/>
<path d="M25710 5647 c0 -11 32 -66 45 -77 21 -17 19 6 -4 44 -14 25 -41 47
-41 33z"/>
<path d="M27120 5606 c0 -8 5 -18 10 -21 6 -3 10 1 10 9 0 8 -4 18 -10 21 -5
3 -10 -1 -10 -9z"/>
<path d="M21160 5589 c0 -9 7 -22 16 -30 8 -7 24 -29 34 -50 11 -20 26 -39 35
-43 12 -4 14 -2 6 13 -6 10 -17 23 -25 31 -9 7 -16 18 -16 24 0 6 -11 25 -25
41 -17 21 -24 25 -25 14z"/>
<path d="M24860 5580 c0 -15 4 -30 8 -35 5 -6 16 -30 25 -55 17 -46 96 -209
97 -199 0 13 -49 148 -69 186 -11 23 -21 51 -21 61 0 11 -9 30 -20 43 l-19 24
-1 -25z"/>
<path d="M26960 5553 c0 -5 5 -15 10 -23 7 -11 12 -12 21 -3 6 6 8 16 5 22 -8
12 -36 15 -36 4z"/>
<path d="M21168 5524 c6 -11 18 -26 26 -34 9 -7 16 -17 16 -22 0 -14 41 -70
47 -64 7 7 -52 98 -79 122 -21 19 -21 19 -10 -2z"/>
<path d="M25768 5488 c5 -7 12 -29 16 -48 15 -77 19 -90 27 -90 5 0 9 9 9 21
0 15 4 19 19 14 16 -5 18 -2 14 15 -3 12 -11 19 -19 16 -15 -6 -46 32 -38 46
7 10 -14 38 -28 38 -7 0 -7 -4 0 -12z"/>
<path d="M24610 5465 c0 -5 5 -17 10 -25 5 -8 10 -10 10 -5 0 6 -5 17 -10 25
-5 8 -10 11 -10 5z"/>
<path d="M25890 5432 c0 -5 7 -13 16 -16 10 -4 14 -1 12 6 -5 15 -28 23 -28
10z"/>
<path d="M27175 5390 c3 -5 8 -10 11 -10 2 0 4 5 4 10 0 6 -5 10 -11 10 -5 0
-7 -4 -4 -10z"/>
<path d="M23121 5377 c2 -2 18 -11 34 -21 l30 -17 -24 20 c-13 12 -28 21 -34
21 -6 0 -8 -1 -6 -3z"/>
<path d="M27200 5340 c0 -29 16 -58 26 -47 4 3 -1 21 -9 39 -16 31 -17 31 -17
8z"/>
<path d="M25860 5312 c0 -39 14 -79 33 -93 5 -3 8 -12 7 -20 -4 -28 0 -40 11
-33 9 5 10 -4 5 -32 l-6 -39 17 39 c13 30 14 43 5 57 -7 10 -12 24 -12 31 0 7
-14 40 -30 73 l-30 60 0 -43z"/>
<path d="M23200 5327 c0 -2 16 -17 36 -32 20 -16 35 -23 33 -16 -4 12 -69 57
-69 48z"/>
<path d="M24681 5294 c0 -11 3 -14 6 -6 3 7 2 16 -1 19 -3 4 -6 -2 -5 -13z"/>
<path d="M22970 5290 c20 -13 33 -13 25 0 -3 6 -14 10 -23 10 -15 0 -15 -2 -2
-10z"/>
<path d="M27170 5286 c0 -8 5 -18 10 -21 6 -3 10 1 10 9 0 8 -4 18 -10 21 -5
3 -10 -1 -10 -9z"/>
<path d="M24691 5254 c0 -11 3 -14 6 -6 3 7 2 16 -1 19 -3 4 -6 -2 -5 -13z"/>
<path d="M23336 5222 c27 -27 122 -100 168 -131 11 -8 38 -28 59 -44 58 -44
54 -26 -5 25 -136 116 -307 231 -222 150z"/>
<path d="M22960 5234 c0 -8 45 -44 84 -67 22 -14 17 -6 -19 27 -46 43 -65 54
-65 40z"/>
<path d="M25016 5227 c3 -10 9 -15 12 -12 3 3 0 11 -7 18 -10 9 -11 8 -5 -6z"/>
<path d="M26810 5211 c0 -11 13 -84 29 -163 16 -79 50 -253 76 -388 26 -135
54 -265 62 -290 8 -25 16 -70 19 -100 2 -30 8 -73 14 -95 5 -22 9 -51 9 -65 0
-24 -1 -24 -9 -4 -13 33 -28 37 -68 19 -67 -32 -92 -64 -49 -66 l22 0 -22 -9
c-16 -7 -20 -15 -16 -32 l5 -23 -16 23 c-14 18 -21 20 -37 12 -11 -6 -19 -22
-20 -38 0 -15 -4 -36 -8 -47 -5 -11 -5 -28 0 -37 6 -11 4 -22 -6 -32 -11 -11
-12 -15 -3 -18 10 -4 10 -10 0 -32 -12 -27 -7 -76 8 -76 4 0 11 -17 15 -37 4
-21 10 -42 15 -48 4 -5 20 -41 35 -80 14 -38 31 -78 36 -87 5 -10 9 -25 9 -33
0 -8 5 -15 11 -15 5 0 7 -4 4 -10 -3 -5 -1 -10 4 -10 6 0 11 -9 11 -21 0 -11
7 -33 15 -47 8 -15 28 -58 43 -97 49 -120 66 -155 77 -155 5 0 39 44 74 98 68
102 74 128 52 207 -9 29 -26 134 -35 205 -3 19 -16 78 -30 130 -37 140 -65
301 -59 333 3 18 1 27 -7 27 -8 0 -10 8 -7 22 4 12 1 28 -5 35 -6 7 -14 30
-19 51 -4 20 -12 55 -18 77 -6 22 -17 76 -26 120 -9 44 -20 96 -25 115 -4 19
-13 64 -19 100 -5 36 -17 103 -26 150 -16 81 -19 102 -31 178 -3 18 -9 30 -14
27 -7 -5 -23 83 -26 150 -1 17 -2 39 -3 50 0 11 -10 26 -21 33 -17 11 -20 10
-20 -7z"/>
<path d="M25470 5184 c0 -7 7 -27 15 -45 10 -24 14 -28 14 -14 0 21 -28 78
-29 59z"/>
<path d="M27005 5170 c-3 -5 -1 -10 4 -10 6 0 11 5 11 10 0 6 -2 10 -4 10 -3
0 -8 -4 -11 -10z"/>
<path d="M23150 5140 c14 -11 28 -20 33 -20 4 0 7 -6 7 -13 0 -7 14 -21 30
-30 17 -10 30 -22 30 -28 0 -5 14 -18 32 -29 17 -10 59 -45 93 -78 33 -33 72
-62 85 -66 18 -5 5 11 -45 58 -38 36 -73 66 -77 66 -5 0 -8 7 -8 15 0 9 -12
20 -27 26 -16 6 -37 19 -48 30 -40 38 -107 89 -118 89 -7 0 -1 -9 13 -20z"/>
<path d="M23861 5116 c12 -20 23 -36 25 -36 7 0 -25 58 -36 65 -5 3 -1 -10 11
-29z"/>
<path d="M26020 5136 c0 -15 18 -31 26 -23 7 7 -7 37 -17 37 -5 0 -9 -6 -9
-14z"/>
<path d="M27004 5127 c3 -12 6 -28 6 -35 0 -8 8 -5 22 8 23 21 16 41 -18 46
-12 2 -14 -3 -10 -19z"/>
<path d="M27223 5124 c-8 -21 13 -42 28 -27 13 13 5 43 -11 43 -6 0 -13 -7
-17 -16z"/>
<path d="M22436 5111 c-3 -5 0 -11 7 -13 17 -7 38 2 31 13 -7 12 -31 12 -38 0z"/>
<path d="M23121 5106 c16 -15 100 -76 105 -76 3 0 -16 18 -42 40 -27 22 -53
40 -58 40 -5 0 -7 -2 -5 -4z"/>
<path d="M22516 5047 c3 -10 9 -15 12 -12 3 3 0 11 -7 18 -10 9 -11 8 -5 -6z"/>
<path d="M22625 5046 c-11 -7 -25 -12 -32 -9 -9 4 -12 -3 -11 -22 2 -15 8 -30
15 -32 17 -7 17 -26 1 -20 -7 2 -26 0 -43 -4 -25 -8 -33 -5 -53 19 -20 23 -22
24 -17 6 3 -13 -1 -26 -10 -34 -8 -7 -15 -27 -15 -46 0 -18 -4 -36 -10 -39 -6
-4 -7 1 -3 11 4 12 3 15 -5 10 -13 -8 -16 -39 -5 -49 3 -4 16 0 29 8 19 12 23
12 28 0 3 -9 0 -12 -10 -8 -14 5 -17 -3 -15 -42 0 -14 -1 -16 -6 -5 -3 8 -17
25 -31 36 -19 17 -23 28 -18 49 5 20 3 26 -6 23 -8 -3 -13 -21 -13 -44 0 -28
-5 -41 -17 -46 -25 -10 -23 -31 2 -23 16 5 20 2 20 -14 0 -12 4 -21 9 -21 5 0
17 -3 27 -7 13 -5 16 -3 11 10 -4 11 -2 14 9 10 7 -3 14 -10 14 -15 0 -6 7 -8
15 -4 8 3 15 1 15 -3 0 -5 -6 -11 -12 -14 -7 -2 -9 -8 -5 -13 10 -10 55 43 62
74 3 12 7 32 10 45 8 37 21 51 41 43 11 -4 14 -10 8 -14 -19 -12 -24 -40 -8
-46 8 -3 13 -11 12 -17 -2 -6 3 -14 10 -16 7 -3 12 4 12 15 0 11 -7 23 -17 26
-14 6 -14 8 3 21 17 12 17 17 6 35 -13 22 -10 35 11 35 5 0 12 6 15 13 6 18
-29 14 -44 -5 -12 -17 -13 -16 -11 5 1 16 8 22 23 22 31 0 74 17 74 30 0 5
-13 10 -30 10 -35 0 -42 25 -9 35 11 4 18 12 16 18 -5 17 -21 18 -42 3z m-67
-146 c-7 -11 -19 -20 -27 -20 -11 0 -11 -3 -1 -15 11 -13 6 -35 -8 -35 -4 0
-12 11 -19 25 -6 14 -7 22 -1 19 5 -3 9 0 7 7 -4 31 2 39 31 39 28 0 29 -2 18
-20z"/>
<path d="M27046 5044 c-9 -22 -8 -24 9 -24 8 0 15 6 15 14 0 22 -17 28 -24 10z"/>
<path d="M22719 5008 c0 -24 -2 -52 -4 -64 -3 -12 -1 -41 4 -65 7 -37 9 -26
10 64 1 59 -1 107 -4 107 -3 0 -5 -19 -6 -42z"/>
<path d="M25990 5026 c0 -9 5 -16 10 -16 6 0 10 4 10 9 0 6 -4 13 -10 16 -5 3
-10 -1 -10 -9z"/>
<path d="M22785 5020 c4 -6 33 -30 64 -53 64 -48 96 -74 126 -102 49 -46 185
-156 185 -150 0 9 -69 75 -146 140 -32 27 -61 52 -64 55 -43 45 -182 138 -165
110z"/>
<path d="M23630 5000 c6 -11 37 -37 68 -57 31 -20 70 -45 85 -55 41 -28 44
-16 4 13 -88 62 -137 102 -137 110 0 5 -7 9 -15 9 -13 0 -14 -4 -5 -20z"/>
<path d="M23390 5003 c0 -11 133 -125 153 -132 11 -3 -58 65 -94 92 -8 7 -25
21 -37 31 -12 11 -22 14 -22 9z"/>
<path d="M22531 4983 c-18 -20 -4 -31 15 -11 9 9 12 18 7 21 -4 3 -14 -2 -22
-10z"/>
<path d="M24500 4974 c0 -8 5 -12 10 -9 6 4 8 11 5 16 -9 14 -15 11 -15 -7z"/>
<path d="M23216 4970 c12 -4 24 -16 28 -26 3 -9 9 -15 12 -12 3 3 28 -16 56
-43 49 -47 78 -61 78 -39 0 6 -5 10 -11 10 -13 0 -79 48 -101 74 -10 12 -18
17 -18 11 0 -5 -7 1 -16 13 -8 12 -23 22 -32 21 -13 0 -12 -2 4 -9z"/>
<path d="M23280 4976 c0 -2 12 -12 28 -21 l27 -18 -19 21 c-17 20 -36 29 -36
18z"/>
<path d="M27060 4965 c0 -8 7 -15 15 -15 8 0 15 7 15 15 0 8 -7 15 -15 15 -8
0 -15 -7 -15 -15z"/>
<path d="M25760 4936 c0 -8 5 -18 10 -21 6 -3 10 3 10 14 0 12 -4 21 -10 21
-5 0 -10 -6 -10 -14z"/>
<path d="M27131 4934 c0 -11 3 -14 6 -6 3 7 2 16 -1 19 -3 4 -6 -2 -5 -13z"/>
<path d="M22310 4921 c0 -12 5 -21 10 -21 6 0 10 6 10 14 0 8 -4 18 -10 21 -5
3 -10 -3 -10 -14z"/>
<path d="M23985 4920 c3 -5 8 -10 11 -10 2 0 4 5 4 10 0 6 -5 10 -11 10 -5 0
-7 -4 -4 -10z"/>
<path d="M22650 4890 c0 -5 5 -10 10 -10 6 0 10 5 10 10 0 6 -4 10 -10 10 -5
0 -10 -4 -10 -10z"/>
<path d="M23407 4858 c-3 -9 3 -14 14 -15 10 -1 33 -19 51 -39 61 -69 85 -87
54 -39 -16 25 -16 25 11 25 l27 0 -31 29 c-17 16 -44 31 -60 33 -15 3 -35 8
-44 12 -10 4 -18 2 -22 -6z"/>
<path d="M22357 4840 c-3 -13 0 -20 9 -20 8 0 14 9 14 20 0 11 -4 20 -9 20 -5
0 -11 -9 -14 -20z"/>
<path d="M23585 4840 c10 -11 20 -20 23 -20 3 0 -3 9 -13 20 -10 11 -20 20
-23 20 -3 0 3 -9 13 -20z"/>
<path d="M25820 4843 c0 -4 5 -15 10 -23 8 -13 10 -13 10 2 0 9 -4 20 -10 23
-5 3 -10 3 -10 -2z"/>
<path d="M27090 4799 c0 -11 5 -17 10 -14 6 3 10 13 10 21 0 8 -4 14 -10 14
-5 0 -10 -9 -10 -21z"/>
<path d="M23985 4754 c33 -30 83 -73 110 -94 46 -35 95 -90 95 -105 0 -11 44
-65 52 -65 5 0 1 12 -9 28 l-17 27 30 -25 c75 -64 104 -95 104 -116 0 -13 -5
-26 -10 -29 -8 -5 -8 -11 0 -20 6 -8 12 -36 13 -64 1 -28 6 -51 11 -51 5 0 6
-13 3 -29 -4 -16 -2 -31 4 -33 5 -2 16 -26 23 -53 8 -28 17 -59 22 -69 5 -14
4 -17 -4 -12 -24 15 -25 -24 -1 -45 15 -13 24 -32 24 -55 1 -18 0 -34 -3 -34
-6 0 -165 154 -250 243 -62 64 -91 82 -60 38 24 -34 137 -151 146 -151 5 0 14
-12 21 -27 10 -23 10 -26 0 -15 -7 6 -18 12 -23 12 -6 0 11 -20 38 -43 27 -24
50 -52 51 -63 0 -10 15 -33 33 -51 18 -17 32 -38 32 -46 0 -9 18 -33 40 -55
22 -21 40 -45 40 -53 -1 -12 -3 -11 -13 1 -10 13 -156 143 -213 191 -10 9 -39
38 -64 64 -36 39 -46 45 -48 31 -4 -18 13 -37 98 -106 23 -19 53 -52 67 -73
13 -21 35 -42 48 -47 31 -12 52 -49 35 -60 -18 -11 -2 -30 26 -30 16 0 24 -6
24 -17 1 -27 27 -56 41 -47 9 5 10 2 6 -10 -6 -14 -3 -17 8 -12 9 3 13 2 10
-4 -3 -5 5 -25 18 -42 27 -37 47 -91 82 -223 13 -49 33 -112 43 -140 37 -95
79 -235 73 -240 -4 -2 -36 53 -71 123 -36 70 -81 155 -102 189 -22 37 -32 65
-26 69 5 4 -1 18 -16 33 -15 15 -23 31 -19 36 5 4 2 5 -4 1 -9 -5 -13 1 -13
18 0 16 -14 42 -35 65 -19 21 -35 42 -35 47 0 14 -67 84 -80 84 -7 0 -9 8 -5
19 5 16 0 20 -21 23 -17 2 -28 10 -30 21 -1 9 -17 30 -35 45 -18 15 -46 39
-62 55 -16 15 -33 27 -38 27 -6 0 -8 4 -4 9 3 5 -8 19 -25 31 -16 12 -30 18
-30 14 0 -4 -15 8 -32 27 -18 19 -32 38 -30 42 1 5 -2 6 -8 2 -5 -3 -10 -3
-10 2 0 11 -61 45 -68 38 -3 -3 32 -42 79 -87 190 -184 325 -317 344 -339 54
-64 124 -178 197 -319 45 -85 85 -162 89 -170 16 -29 119 -249 119 -255 0 -3
11 -22 24 -43 14 -20 34 -80 46 -132 12 -52 34 -133 47 -180 25 -82 46 -277
31 -286 -3 -2 -9 4 -11 13 -4 17 -5 17 -6 1 -1 -19 -41 -26 -41 -8 0 6 -5 10
-11 10 -7 0 -8 -7 -4 -17 15 -37 17 -53 6 -53 -6 0 -11 7 -11 15 0 8 -5 15
-11 15 -6 0 -10 -10 -9 -22 3 -38 0 -58 -9 -58 -4 0 -7 12 -5 26 2 23 0 25
-31 21 -18 -3 -38 -8 -44 -11 -14 -9 -14 -36 0 -36 8 0 8 -5 -1 -15 -7 -8 -17
-15 -22 -15 -10 0 -38 -25 -38 -34 0 -3 6 -3 13 0 15 5 54 -33 44 -43 -4 -3
-7 -1 -7 5 0 7 -14 12 -31 12 -23 0 -30 -4 -28 -17 1 -10 -1 -26 -5 -35 -8
-18 -1 -38 14 -38 5 0 11 8 13 18 4 13 5 12 6 -5 1 -27 -33 -69 -71 -89 -30
-15 -36 -42 -15 -63 10 -10 8 -14 -6 -22 -14 -8 -16 -14 -7 -25 29 -34 130
-25 403 38 126 29 137 33 131 51 -17 53 -68 286 -89 407 -20 119 -23 154 -12
139 4 -5 131 -378 159 -469 12 -36 22 -66 23 -68 5 -6 95 21 95 28 0 5 -49
109 -109 232 -60 123 -124 255 -142 295 -18 39 -37 69 -41 67 -17 -11 -69 174
-74 265 -6 105 -14 82 -14 -40 -1 -83 -3 -109 -11 -96 -5 9 -8 21 -5 25 6 10
-15 178 -26 212 -17 48 -30 108 -32 155 -2 29 -7 58 -11 64 -4 7 -7 44 -7 84
0 39 -5 81 -11 92 -13 23 -10 46 6 58 9 6 9 10 0 14 -15 6 -17 43 -3 43 16 0
12 28 -6 38 -10 6 -16 22 -16 45 0 21 -4 40 -10 43 -15 9 -23 -5 -10 -18 8 -8
8 -18 -2 -37 -13 -25 -13 -40 -1 -161 3 -30 3 -51 -2 -47 -15 16 -32 91 -26
119 4 21 1 33 -13 43 -16 13 -17 16 -4 24 11 8 12 13 3 22 -7 7 -9 24 -6 42 5
23 1 34 -13 45 -13 10 -15 16 -6 19 14 5 17 43 3 43 -5 0 -9 12 -8 28 1 15 0
50 -1 77 -2 38 -5 46 -13 35 -7 -11 -9 -3 -4 30 5 41 5 43 -9 26 -15 -18 -16
-18 -25 5 -26 60 -83 459 -86 596 0 13 -4 23 -10 23 -18 0 -7 -319 12 -370 4
-8 7 -30 9 -48 2 -19 8 -39 13 -46 8 -9 6 -18 -4 -32 -13 -18 -14 -18 -15 -1
0 10 -4 16 -9 13 -5 -3 -14 1 -21 9 -7 8 -20 15 -29 16 -11 0 -12 2 -3 6 10 4
8 9 -6 19 -21 14 -36 64 -19 64 5 0 25 -17 44 -37 31 -35 34 -36 29 -13 -3 14
-6 33 -6 42 0 10 -5 15 -13 12 -8 -3 -22 12 -36 36 -12 22 -26 40 -31 40 -10
0 -25 39 -22 58 2 6 -2 12 -9 12 -7 0 -9 9 -5 25 4 14 2 25 -2 25 -5 0 -17 28
-27 63 -19 65 -20 68 -29 132 -3 22 -8 51 -11 65 -2 14 -9 61 -16 105 -6 44
-14 87 -17 95 -3 8 -6 18 -6 22 -2 14 -291 152 -381 181 -11 4 7 -18 40 -49z
m610 -1015 c-4 -5 1 -9 9 -9 9 0 16 -4 16 -10 0 -11 -50 -14 -50 -2 0 4 -3 18
-7 31 -5 21 -4 22 16 12 12 -7 19 -16 16 -22z m9 -61 c11 -41 6 -53 -9 -24
-17 32 -19 46 -6 46 5 0 11 -10 15 -22z m29 -21 c-4 -6 -10 -2 -14 9 -12 31
-9 40 6 20 8 -10 11 -24 8 -29z m-3 -87 c0 -5 -5 -10 -11 -10 -5 0 -7 5 -4 10
3 6 8 10 11 10 2 0 4 -4 4 -10z m15 -40 c3 -5 -1 -10 -9 -10 -9 0 -16 5 -16
10 0 6 4 10 9 10 6 0 13 -4 16 -10z m-15 -51 c0 -6 -4 -7 -10 -4 -5 3 -10 11
-10 16 0 6 5 7 10 4 6 -3 10 -11 10 -16z m26 -14 c-8 -8 -18 -15 -22 -15 -3 0
-1 7 6 15 7 8 17 15 22 15 5 0 3 -7 -6 -15z"/>
<path d="M25960 4775 c0 -5 5 -17 10 -25 5 -8 10 -10 10 -5 0 6 -5 17 -10 25
-5 8 -10 11 -10 5z"/>
<path d="M23428 4763 c6 -2 9 -10 6 -15 -4 -6 -3 -8 3 -5 14 9 56 -32 49 -48
-3 -9 2 -11 17 -7 12 3 19 2 15 -2 -11 -12 24 -46 74 -72 26 -13 53 -33 61
-45 l15 -21 4 23 c4 32 46 29 83 -5 15 -14 33 -26 39 -26 6 0 5 -4 -3 -9 -11
-7 -9 -10 8 -16 11 -3 21 -11 21 -16 0 -6 5 -7 10 -4 6 3 10 -1 10 -10 0 -11
5 -15 15 -11 8 3 19 -2 24 -12 6 -9 11 -13 11 -8 1 23 -199 216 -224 216 -6 0
-3 -7 7 -14 21 -16 22 -26 1 -26 -10 0 -14 -6 -10 -15 6 -17 -2 -19 -23 -6 -7
5 -11 13 -8 19 6 9 -13 30 -42 47 -10 6 -12 4 -6 -4 6 -10 3 -11 -14 -2 -18
10 -19 15 -9 31 16 26 0 40 -18 16 -12 -17 -14 -17 -20 -3 -3 10 -12 17 -20
17 -8 0 -14 3 -14 8 0 8 -49 32 -64 31 -6 0 -5 -3 2 -6z"/>
<path d="M23580 4750 c6 -11 17 -20 25 -20 12 0 12 4 -2 20 -10 11 -21 20 -26
20 -4 0 -3 -9 3 -20z"/>
<path d="M25623 4753 c0 -10 6 -26 13 -37 7 -10 10 -24 8 -30 -4 -10 72 -176
80 -176 8 0 -21 89 -36 113 -10 14 -18 30 -18 35 0 5 -7 32 -15 60 -16 51 -31
69 -32 35z"/>
<path d="M25860 4751 c0 -6 5 -13 10 -16 6 -3 10 1 10 9 0 9 -4 16 -10 16 -5
0 -10 -4 -10 -9z"/>
<path d="M22595 4740 c-3 -5 -1 -10 4 -10 6 0 11 5 11 10 0 6 -2 10 -4 10 -3
0 -8 -4 -11 -10z"/>
<path d="M25980 4713 c0 -14 19 -38 25 -32 8 8 -5 39 -16 39 -5 0 -9 -3 -9 -7z"/>
<path d="M23170 4701 c0 -5 5 -13 10 -16 6 -3 10 -2 10 4 0 5 -4 13 -10 16 -5
3 -10 2 -10 -4z"/>
<path d="M24556 4620 c3 -52 6 -102 8 -110 2 -9 -3 -22 -11 -29 -12 -11 -15
-10 -20 8 -3 12 -9 21 -14 21 -9 0 -3 -45 16 -130 l12 -55 4 48 c2 26 1 47 -3
47 -5 0 -8 7 -8 16 0 8 4 13 9 9 5 -3 12 3 14 12 3 10 6 -4 7 -32 2 -47 3 -48
9 -15 9 45 -4 247 -17 280 -8 18 -9 0 -6 -70z"/>
<path d="M24300 4686 c0 -8 5 -18 10 -21 6 -3 10 1 10 9 0 8 -4 18 -10 21 -5
3 -10 -1 -10 -9z"/>
<path d="M25909 4695 c-2 -20 2 -70 8 -89 4 -15 2 -18 -12 -12 -14 5 -16 2
-11 -16 3 -13 6 -26 6 -30 0 -17 20 -7 20 10 1 18 31 -43 34 -68 1 -8 9 -29
18 -46 10 -18 22 -54 28 -80 6 -27 14 -58 19 -69 5 -11 14 -38 20 -60 12 -43
76 -123 88 -111 4 4 0 19 -9 34 -39 61 -42 73 -30 93 14 22 9 24 -19 9 -15 -8
-19 -7 -19 4 0 10 6 13 17 9 13 -5 15 -3 8 13 -4 10 -14 40 -21 66 -7 25 -28
81 -47 125 -19 43 -42 103 -52 133 -18 55 -44 103 -46 85z"/>
<path d="M24440 4680 c0 -5 5 -10 11 -10 5 0 7 5 4 10 -3 6 -8 10 -11 10 -2 0
-4 -4 -4 -10z"/>
<path d="M26198 4663 c7 -3 16 -2 19 1 4 3 -2 6 -13 5 -11 0 -14 -3 -6 -6z"/>
<path d="M25855 4650 c3 -5 8 -10 11 -10 2 0 4 5 4 10 0 6 -5 10 -11 10 -5 0
-7 -4 -4 -10z"/>
<path d="M26010 4647 c0 -7 4 -17 9 -22 5 -6 18 -39 31 -75 12 -36 32 -87 46
-113 13 -27 24 -53 24 -59 0 -5 34 -85 76 -176 88 -193 96 -211 123 -274 11
-25 31 -70 45 -100 13 -29 47 -102 74 -163 28 -60 64 -140 81 -178 17 -37 31
-70 31 -73 0 -5 25 -64 75 -179 7 -16 25 -61 40 -100 31 -79 72 -157 60 -115
-20 72 -32 107 -41 125 -11 19 -54 148 -54 160 0 3 7 5 15 5 8 0 15 -6 15 -12
0 -9 3 -9 9 1 15 24 2 42 -21 30 -12 -7 -24 -7 -29 -2 -13 13 0 43 17 43 8 0
14 7 14 15 0 8 -4 15 -10 15 -5 0 -10 -5 -10 -11 0 -5 -4 -7 -10 -4 -5 3 -10
11 -10 16 0 6 5 7 10 4 11 -7 11 -4 17 60 1 22 4 51 5 64 2 13 -3 26 -11 29
-10 3 -12 -2 -8 -19 3 -13 1 -33 -3 -44 -7 -17 -9 -15 -9 12 -1 17 -7 33 -13
36 -9 3 -7 9 6 19 18 15 18 15 -2 20 -12 3 -28 22 -38 44 -9 22 -18 34 -21 27
-4 -11 14 -77 36 -128 27 -66 31 -105 11 -105 -12 0 -36 64 -39 105 -1 17 -3
18 -12 5 -8 -12 -9 -11 -5 6 4 12 -4 39 -18 66 -13 25 -32 72 -42 104 -10 33
-23 64 -29 69 -7 6 -15 27 -19 48 -4 20 -11 37 -15 37 -5 0 -14 14 -20 30 -5
17 -15 30 -21 30 -6 0 -9 4 -6 9 7 10 -16 61 -27 61 -5 0 -5 5 -2 11 4 6 -2
19 -14 30 -12 11 -21 26 -21 34 0 12 -35 85 -60 125 -18 29 -50 109 -50 126 0
9 -6 22 -14 28 -19 15 -67 108 -100 191 -43 109 -50 125 -58 125 -5 0 -8 -6
-8 -13z"/>
<path d="M27117 4634 c-8 -8 1 -24 14 -24 5 0 9 7 9 15 0 15 -12 20 -23 9z"/>
<path d="M20526 4595 c-9 -9 -16 -20 -16 -24 0 -65 -25 -299 -40 -371 -44
-214 -105 -579 -120 -720 -6 -52 -22 -156 -35 -230 -33 -178 -43 -242 -51
-320 -4 -35 -13 -83 -21 -105 -8 -22 -25 -94 -38 -161 -14 -66 -33 -159 -44
-205 -10 -46 -22 -127 -26 -179 -6 -89 -5 -96 14 -107 17 -11 22 -10 31 6 5
11 10 34 10 50 0 17 9 63 20 103 11 39 27 119 35 177 22 154 83 466 105 541
27 88 38 151 46 262 3 51 19 171 35 266 16 95 29 192 30 215 0 44 12 116 48
282 42 194 68 502 44 526 -7 7 -16 5 -27 -6z"/>
<path d="M24510 4560 c0 -18 4 -29 10 -25 6 3 10 15 10 25 0 10 -4 22 -10 25
-6 4 -10 -7 -10 -25z"/>
<path d="M23696 4541 c-3 -5 1 -11 9 -15 8 -3 15 -1 15 4 0 13 -18 22 -24 11z"/>
<path d="M24803 4435 c4 -26 7 -58 7 -71 0 -15 6 -24 15 -24 9 0 18 -12 21
-30 7 -33 4 -47 -10 -42 -5 2 -6 -12 -2 -30 36 -169 67 -433 81 -683 3 -55 8
-127 10 -160 2 -33 7 -159 11 -280 4 -121 10 -210 13 -197 6 21 7 22 29 7 12
-9 22 -22 22 -28 0 -7 11 -17 25 -24 21 -9 25 -9 25 4 0 8 -4 12 -9 9 -12 -8
-24 40 -16 64 3 10 1 21 -5 25 -5 3 -10 1 -10 -4 0 -6 -7 -11 -15 -11 -23 0
-18 27 6 33 23 6 69 -34 69 -61 0 -8 3 -12 7 -9 4 4 16 -12 28 -35 20 -40 73
-141 142 -268 46 -85 47 -88 103 -200 28 -58 76 -152 105 -210 29 -58 56 -112
59 -120 4 -8 22 -42 41 -75 20 -33 38 -68 41 -78 7 -19 20 -22 29 -8 3 6 -21
61 -52 123 -32 62 -62 123 -68 134 -5 11 -23 47 -39 80 -84 171 -96 197 -96
213 0 9 -4 21 -9 27 -4 5 -13 24 -20 43 -18 55 2 62 43 15 20 -21 35 -43 36
-49 0 -5 9 -21 20 -35 l20 -25 -1 25 c0 14 -24 74 -54 135 -29 60 -52 111 -50
113 8 8 25 -10 25 -28 0 -10 7 -20 15 -24 8 -3 15 -12 15 -20 0 -18 30 -30 43
-17 7 7 3 17 -11 29 -12 11 -22 26 -22 33 0 11 2 11 10 -1 8 -12 10 -10 10 9
0 16 -4 21 -14 18 -8 -3 -23 3 -35 14 -22 21 -27 39 -11 39 6 0 10 -4 10 -10
0 -5 5 -10 10 -10 6 0 3 11 -7 24 -12 15 -20 20 -25 13 -4 -8 -9 -5 -14 7 -4
11 -2 21 7 27 10 6 7 9 -13 9 -19 0 -29 7 -34 23 -3 12 -13 30 -21 39 -10 11
-13 26 -8 47 5 23 3 31 -8 31 -13 0 -28 23 -41 63 -3 10 -10 16 -15 12 -15 -9
-25 16 -10 26 11 8 9 13 -10 30 -17 13 -21 23 -14 30 7 7 20 -5 42 -40 30 -50
46 -66 35 -36 -4 8 -1 15 5 15 6 0 12 -4 12 -10 2 -11 5 -25 9 -37 1 -5 2 -12
1 -16 -1 -4 6 -10 14 -13 8 -4 15 -12 15 -20 0 -8 5 -14 11 -14 5 0 8 -4 4 -9
-3 -5 8 -19 25 -31 27 -19 45 -50 20 -35 -5 3 -10 0 -10 -8 0 -8 7 -17 15 -21
8 -3 15 -12 15 -20 0 -8 9 -17 19 -21 19 -6 36 -33 26 -43 -3 -3 -5 0 -5 6 0
7 -4 12 -10 12 -21 0 -8 -19 20 -29 17 -5 30 -17 30 -25 0 -9 4 -16 9 -16 5 0
13 -10 16 -22 4 -13 19 -39 34 -58 14 -19 31 -46 36 -60 13 -31 43 -82 72
-124 13 -17 37 -60 55 -96 17 -36 34 -67 37 -70 20 -17 64 -85 73 -113 6 -17
24 -48 40 -67 15 -19 28 -40 28 -47 0 -7 5 -13 11 -13 14 0 116 58 123 69 3 5
-22 77 -55 161 -61 153 -97 251 -210 575 -32 94 -65 181 -73 195 -15 26 -57
156 -54 168 1 7 -3 20 -27 82 -22 54 -37 119 -30 130 3 6 1 10 -4 10 -6 0 -17
16 -25 35 -8 19 -19 35 -23 35 -5 0 -16 12 -25 28 -9 15 -41 52 -70 83 -29 31
-91 98 -138 150 -121 134 -271 292 -290 305 -8 7 -27 38 -42 70 -54 119 -97
220 -114 267 -24 66 -39 72 -31 12z m162 -1365 c-4 -12 -1 -28 6 -36 6 -8 9
-17 6 -20 -10 -10 -28 36 -22 56 4 11 9 20 11 20 3 0 2 -9 -1 -20z m558 -310
c16 -36 43 -91 59 -123 16 -32 28 -61 25 -63 -3 -3 -14 14 -26 38 -11 24 -31
59 -43 78 -31 50 -88 163 -88 175 1 20 44 -42 73 -105z m-203 -82 c0 -5 -4 -8
-8 -8 -9 0 -32 44 -32 58 1 9 39 -41 40 -50z"/>
<path d="M21290 4427 c0 -13 80 -97 93 -97 11 0 -51 85 -72 98 -17 10 -21 10
-21 -1z"/>
<path d="M26230 4431 c0 -10 19 -25 25 -20 1 2 -3 10 -11 17 -8 7 -14 8 -14 3z"/>
<path d="M22020 4393 c13 -18 25 -33 27 -33 8 0 -17 38 -33 51 -11 9 -9 2 6
-18z"/>
<path d="M23918 4413 c7 -3 16 -2 19 1 4 3 -2 6 -13 5 -11 0 -14 -3 -6 -6z"/>
<path d="M25887 4414 c-2 -3 5 -24 17 -47 39 -76 57 -130 45 -138 -9 -5 -9
-15 0 -39 14 -41 14 -70 1 -70 -5 0 -10 9 -10 20 0 23 -20 70 -30 70 -4 0 -11
16 -14 35 -4 19 -11 37 -16 40 -14 9 0 -86 16 -112 8 -13 12 -23 8 -23 -3 0
10 -29 30 -64 20 -35 36 -73 36 -85 0 -11 5 -23 10 -26 6 -3 10 -13 10 -21 0
-8 15 -38 33 -67 31 -50 91 -168 138 -270 14 -32 24 -44 29 -37 5 8 12 0 21
-24 7 -20 17 -36 21 -36 4 0 8 -7 8 -15 0 -8 4 -15 9 -15 5 0 13 -15 16 -32 4
-18 13 -40 20 -48 26 -30 56 -93 51 -106 -3 -9 2 -14 14 -14 21 0 27 -15 10
-25 -6 -4 -3 -15 7 -30 23 -30 33 -23 34 23 l1 37 9 -45 c7 -37 6 -47 -7 -57
-10 -7 -13 -19 -9 -32 7 -24 35 -29 35 -6 0 8 4 15 8 15 18 0 21 -13 7 -32
-10 -16 -11 -26 -3 -44 8 -17 8 -27 -2 -39 -11 -13 -9 -15 13 -15 25 0 48 -31
27 -38 -6 -2 1 -13 15 -24 14 -11 25 -27 25 -36 1 -9 7 -30 15 -47 10 -19 13
-22 9 -7 -4 16 -1 22 11 22 16 0 16 -10 -2 -57 -3 -8 3 -13 14 -13 24 0 43
-19 43 -42 0 -10 7 -21 15 -24 8 -4 15 -15 15 -25 0 -11 9 -38 21 -60 16 -33
23 -38 34 -29 12 10 12 17 -1 48 -9 21 -30 71 -47 112 -16 41 -45 106 -64 144
-26 53 -31 71 -21 78 11 6 11 8 0 8 -7 0 -24 23 -37 52 -22 47 -23 53 -8 64
16 11 16 13 1 28 -9 9 -21 16 -27 16 -6 0 -11 6 -11 13 -1 6 -18 47 -40 91
-21 43 -36 85 -33 92 3 8 -1 14 -9 14 -8 0 -22 16 -31 35 -9 20 -24 38 -32 41
-8 4 -18 24 -21 45 -5 29 -11 39 -25 39 -16 0 -18 5 -13 25 5 20 3 24 -10 19
-9 -3 -16 -1 -16 5 0 7 -9 9 -24 5 -20 -5 -24 -1 -29 23 -7 35 -1 42 17 18 13
-18 14 -18 25 4 15 28 -1 51 -29 44 -16 -4 -20 0 -20 19 0 13 -7 33 -15 44 -8
10 -15 33 -15 50 0 16 -4 34 -9 40 -5 5 -14 27 -21 49 -7 22 -18 49 -25 60 -6
11 -38 79 -69 150 -71 159 -126 274 -136 280 -4 2 -10 2 -13 -1z m453 -975 c0
-11 5 -29 10 -40 7 -12 7 -19 1 -19 -6 0 -15 9 -21 19 -13 25 -13 74 0 66 6
-3 10 -15 10 -26z"/>
<path d="M25960 4410 c0 -5 5 -10 11 -10 5 0 7 5 4 10 -3 6 -8 10 -11 10 -2 0
-4 -4 -4 -10z"/>
<path d="M27554 4365 c-8 -30 3 -89 22 -127 8 -15 14 -39 14 -54 0 -36 8 -26
25 29 13 43 12 48 -7 72 -15 20 -18 29 -9 34 9 6 8 11 -4 21 -8 7 -15 18 -15
26 0 25 -19 25 -26 -1z m26 -36 c0 -5 -4 -9 -10 -9 -5 0 -10 7 -10 16 0 8 5
12 10 9 6 -3 10 -10 10 -16z"/>
<path d="M27600 4381 c0 -6 5 -13 10 -16 6 -3 10 1 10 9 0 9 -4 16 -10 16 -5
0 -10 -4 -10 -9z"/>
<path d="M23940 4366 c0 -2 8 -10 18 -17 15 -13 16 -12 3 4 -13 16 -21 21 -21
13z"/>
<path d="M27337 4319 c4 -13 8 -18 11 -10 2 7 -1 18 -6 23 -8 8 -9 4 -5 -13z"/>
<path d="M24000 4310 c6 -11 13 -20 16 -20 2 0 0 9 -6 20 -6 11 -13 20 -16 20
-2 0 0 -9 6 -20z"/>
<path d="M23550 4315 c0 -11 123 -124 135 -125 6 0 -15 24 -46 53 -73 68 -89
81 -89 72z"/>
<path d="M22120 4275 c13 -14 25 -23 27 -21 6 6 -30 46 -41 46 -5 0 1 -11 14
-25z"/>
<path d="M24570 4270 c0 -5 6 -10 14 -10 8 0 18 5 21 10 3 6 -3 10 -14 10 -12
0 -21 -4 -21 -10z"/>
<path d="M25506 4260 c6 -23 34 -71 34 -59 0 3 -9 23 -20 45 -12 22 -18 28
-14 14z"/>
<path d="M24245 4220 c-3 -5 1 -10 10 -10 9 0 13 5 10 10 -3 6 -8 10 -10 10
-2 0 -7 -4 -10 -10z"/>
<path d="M22170 4216 c0 -2 8 -10 18 -17 15 -13 16 -12 3 4 -13 16 -21 21 -21
13z"/>
<path d="M24685 4150 c-3 -5 1 -10 10 -10 9 0 13 5 10 10 -3 6 -8 10 -10 10
-2 0 -7 -4 -10 -10z"/>
<path d="M24691 4114 c0 -11 3 -14 6 -6 3 7 2 16 -1 19 -3 4 -6 -2 -5 -13z"/>
<path d="M18260 4073 c-7 -21 -15 -112 -20 -203 -7 -148 -20 -258 -51 -433 -5
-32 -13 -96 -16 -141 l-6 -83 31 -22 31 -22 12 23 c8 15 10 56 6 135 -6 99 -3
132 24 275 25 136 31 192 33 336 2 158 0 172 -16 172 -11 0 -21 -13 -28 -37z"/>
<path d="M24310 4106 c0 -2 7 -6 15 -10 8 -3 15 -1 15 4 0 6 -7 10 -15 10 -8
0 -15 -2 -15 -4z"/>
<path d="M24695 4080 c-3 -5 1 -10 10 -10 9 0 13 5 10 10 -3 6 -8 10 -10 10
-2 0 -7 -4 -10 -10z"/>
<path d="M26377 4065 c-4 -8 -2 -17 3 -20 6 -4 10 3 10 14 0 25 -6 27 -13 6z"/>
<path d="M23876 4035 c-3 -8 2 -21 10 -30 25 -25 34 -17 18 15 -18 34 -20 36
-28 15z"/>
<path d="M24120 4030 c0 -5 5 -10 11 -10 5 0 7 5 4 10 -3 6 -8 10 -11 10 -2 0
-4 -4 -4 -10z"/>
<path d="M22596 3997 c3 -10 9 -15 12 -12 3 3 0 11 -7 18 -10 9 -11 8 -5 -6z"/>
<path d="M24401 3963 c7 -12 15 -20 18 -17 3 2 -3 12 -13 22 -17 16 -18 16 -5
-5z"/>
<path d="M24710 3946 c0 -19 5 -38 10 -41 6 -4 10 10 10 34 0 23 -4 41 -10 41
-5 0 -10 -15 -10 -34z"/>
<path d="M22465 3849 c11 -13 23 -26 26 -29 15 -13 28 -50 22 -65 -5 -14 -2
-16 15 -11 17 6 26 0 45 -31 13 -21 32 -45 41 -52 10 -8 26 -32 37 -53 11 -21
23 -38 27 -38 4 0 36 -38 71 -85 36 -47 68 -85 73 -85 4 0 8 -6 8 -12 1 -7 30
-44 65 -83 60 -65 65 -68 65 -42 0 15 -4 27 -9 27 -16 0 -113 98 -107 108 3 5
-5 14 -19 20 -15 7 -25 21 -27 39 -2 15 -7 27 -11 25 -13 -5 -36 30 -30 45 3
7 1 13 -4 13 -6 0 -15 10 -21 23 -7 14 -11 17 -11 7 -1 -9 4 -21 11 -28 6 -6
9 -15 5 -18 -4 -4 -14 10 -23 32 -9 21 -28 51 -43 67 -47 50 -59 65 -63 84 -2
10 -10 17 -17 15 -6 -1 -17 12 -23 29 -6 17 -21 34 -34 39 -14 6 -24 19 -26
35 -2 14 -7 26 -13 26 -5 1 -19 6 -30 11 l-20 11 20 -24z"/>
<path d="M22709 3855 c17 -33 31 -51 31 -40 0 6 -10 21 -21 35 -13 17 -17 18
-10 5z"/>
<path d="M24720 3860 c0 -5 7 -10 16 -10 8 0 12 5 9 10 -3 6 -10 10 -16 10 -5
0 -9 -4 -9 -10z"/>
<path d="M21750 3849 c0 -9 9 -27 20 -40 25 -31 25 -18 0 23 -12 20 -20 26
-20 17z"/>
<path d="M26456 3851 c-4 -6 0 -21 8 -33 15 -21 16 -21 16 -3 0 28 -16 50 -24
36z"/>
<path d="M24726 3821 c-4 -6 -3 -26 3 -45 5 -19 6 -37 3 -40 -13 -13 -12 -66
2 -66 8 0 15 -18 19 -50 6 -51 28 -87 47 -75 16 10 12 22 -10 28 -12 3 -20 14
-20 26 0 14 5 19 15 15 19 -8 19 5 0 25 -13 16 -20 47 -29 134 -4 42 -19 66
-30 48z"/>
<path d="M24760 3820 c0 -8 5 -22 10 -30 9 -13 10 -13 10 0 0 8 -5 22 -10 30
-9 13 -10 13 -10 0z"/>
<path d="M22770 3771 c0 -6 4 -13 10 -16 6 -3 7 1 4 9 -7 18 -14 21 -14 7z"/>
<path d="M21810 3737 c0 -14 31 -47 43 -47 14 0 6 48 -9 54 -24 9 -34 7 -34
-7z"/>
<path d="M26490 3738 c0 -7 11 -26 25 -43 19 -24 24 -26 25 -12 0 21 -28 67
-41 67 -5 0 -9 -6 -9 -12z"/>
<path d="M22835 3680 c46 -65 82 -112 110 -143 11 -13 63 -77 115 -142 52 -66
130 -163 174 -215 43 -52 86 -104 95 -116 10 -11 37 -46 62 -78 24 -32 55 -73
69 -91 71 -92 189 -249 210 -281 8 -12 69 -95 135 -184 66 -89 125 -171 132
-182 6 -11 15 -23 20 -27 4 -3 23 -27 41 -53 27 -39 31 -51 22 -67 -7 -14 -7
-22 2 -27 7 -4 8 -3 4 4 -11 18 20 14 38 -4 9 -8 21 -25 27 -37 7 -11 16 -26
21 -31 4 -6 17 -22 28 -35 11 -13 17 -28 14 -32 -11 -18 7 -48 24 -42 13 4 12
2 -3 -10 -11 -8 -23 -13 -27 -11 -14 9 -9 -5 9 -26 23 -27 33 -25 33 5 0 25
14 33 25 15 3 -5 2 -10 -3 -10 -6 0 -13 -12 -17 -27 -5 -20 -1 -32 20 -52 l26
-26 5 23 c7 24 19 28 30 10 4 -6 2 -14 -4 -16 -8 -2 -8 -7 1 -17 9 -9 14 -10
20 -1 5 7 14 3 28 -14 11 -14 29 -35 40 -48 22 -25 25 -37 7 -25 -7 4 -22 8
-33 8 -13 0 -19 6 -17 16 1 9 -4 22 -12 28 -11 9 -15 7 -19 -10 -4 -14 2 -28
19 -44 28 -26 71 -38 77 -21 3 7 11 5 23 -6 14 -13 28 -15 47 -10 l28 7 -43
45 c-81 86 -233 266 -328 391 -19 25 -47 61 -63 80 -15 19 -56 72 -92 119
-116 153 -162 213 -216 280 -19 25 -46 63 -59 85 -13 22 -44 65 -67 95 -24 30
-74 98 -113 151 -39 54 -94 123 -123 156 -28 32 -68 79 -87 103 -19 25 -38 46
-42 48 -4 2 -40 44 -80 94 -40 50 -90 111 -111 137 -20 25 -75 96 -121 156
-95 124 -169 201 -101 105z"/>
<path d="M26335 3641 c-3 -5 4 -26 16 -45 16 -27 18 -40 10 -50 -13 -15 -5
-27 15 -19 19 7 18 29 -7 80 -22 46 -25 48 -34 34z"/>
<path d="M22736 3605 c4 -8 11 -15 16 -15 6 0 5 6 -2 15 -7 8 -14 15 -16 15
-2 0 -1 -7 2 -15z"/>
<path d="M24494 3498 c-9 -29 22 -54 42 -33 18 18 18 25 -3 41 -25 18 -31 17
-39 -8z"/>
<path d="M26390 3511 c0 -6 5 -13 10 -16 6 -3 10 1 10 9 0 9 -4 16 -10 16 -5
0 -10 -4 -10 -9z"/>
<path d="M26420 3460 c0 -5 5 -10 11 -10 5 0 7 5 4 10 -3 6 -8 10 -11 10 -2 0
-4 -4 -4 -10z"/>
<path d="M26435 3390 c-3 -5 1 -10 9 -10 9 0 16 5 16 10 0 6 -4 10 -9 10 -6 0
-13 -4 -16 -10z"/>
<path d="M24565 3380 c-3 -5 -2 -10 4 -10 5 0 13 5 16 10 3 6 2 10 -4 10 -5 0
-13 -4 -16 -10z"/>
<path d="M22248 3355 c7 -11 32 -47 57 -80 25 -33 52 -76 61 -95 9 -19 25 -43
35 -55 10 -11 41 -48 69 -83 27 -34 87 -106 133 -160 46 -53 92 -111 101 -129
13 -26 64 -97 163 -228 4 -6 31 -38 58 -70 83 -99 128 -155 172 -214 22 -31
55 -72 71 -91 81 -93 112 -136 107 -148 -2 -7 6 -18 20 -24 20 -9 23 -16 18
-36 -5 -21 -3 -24 11 -19 9 4 16 2 16 -4 0 -6 5 -7 10 -4 6 3 10 -4 10 -18 0
-29 10 -40 25 -27 8 7 18 0 34 -21 27 -37 20 -52 -8 -18 -11 13 -20 19 -21 12
0 -18 56 -73 75 -73 11 0 14 -6 9 -25 -5 -20 -1 -26 21 -35 21 -8 26 -15 22
-31 -3 -12 0 -22 9 -26 8 -3 14 -13 14 -22 0 -14 10 -18 56 -19 60 -2 60 -4
16 48 -7 8 -35 46 -63 85 -95 135 -42 98 69 -47 37 -48 73 -88 80 -88 11 0 10
7 -5 29 -32 51 -235 293 -328 390 -49 53 -104 110 -120 128 -17 17 -49 53 -70
80 -22 26 -59 67 -82 91 -24 23 -43 45 -43 47 0 3 -8 13 -17 23 -56 58 -168
199 -218 272 -75 111 -118 165 -220 275 -46 49 -98 110 -117 135 -18 25 -47
65 -65 90 -18 25 -38 56 -43 68 -9 22 -55 70 -109 117 l-24 20 11 -20z m1196
-1450 c13 -20 14 -25 3 -25 -8 0 -19 11 -25 25 -6 14 -8 25 -3 25 5 0 16 -11
25 -25z m126 -278 c0 -16 -18 3 -23 25 -6 22 -5 22 8 4 8 -11 15 -24 15 -29z"/>
<path d="M22961 3331 c-7 -5 -10 -14 -7 -20 11 -17 23 -13 29 9 6 22 0 25 -22
11z"/>
<path d="M26550 3310 c0 -5 5 -10 10 -10 6 0 10 5 10 10 0 6 -4 10 -10 10 -5
0 -10 -4 -10 -10z"/>
<path d="M26738 3291 c2 -17 8 -34 13 -37 14 -8 10 30 -4 51 -13 16 -14 15 -9
-14z"/>
<path d="M26552 3260 c7 -11 16 -20 19 -20 4 0 5 9 2 20 -3 11 -12 20 -19 20
-12 0 -12 -4 -2 -20z"/>
<path d="M26670 3264 c0 -3 7 -12 15 -20 16 -17 18 -14 9 10 -6 15 -24 23 -24
10z"/>
<path d="M26325 3238 c4 -13 11 -27 16 -33 5 -5 4 5 -2 23 -12 36 -24 44 -14
10z"/>
<path d="M23035 3210 c15 -28 45 -42 45 -20 0 15 -33 50 -47 50 -11 0 -10 -7
2 -30z"/>
<path d="M22976 3208 c3 -11 26 -46 50 -77 24 -31 55 -72 70 -91 14 -19 58
-79 97 -132 40 -54 102 -139 140 -190 37 -51 82 -113 100 -137 17 -24 37 -51
42 -60 6 -9 24 -34 41 -56 17 -22 49 -65 70 -96 21 -31 49 -69 61 -85 54 -71
92 -123 104 -145 6 -13 17 -29 23 -35 6 -6 18 -22 26 -34 8 -12 21 -29 28 -36
8 -8 30 -38 49 -67 20 -28 57 -77 83 -107 26 -30 54 -69 62 -85 9 -17 25 -39
37 -49 12 -11 21 -23 21 -29 0 -5 14 -27 31 -49 l32 -40 71 7 c39 3 72 7 73 9
7 6 -39 56 -52 56 -14 0 -25 21 -25 49 0 10 -11 28 -25 41 -14 13 -25 27 -25
31 0 5 -10 19 -22 33 -40 42 -48 55 -48 71 0 16 -39 36 -53 28 -4 -2 -7 -1 -6
4 1 4 0 11 -1 16 -1 4 -3 10 -4 15 -4 21 -50 82 -66 87 -11 4 -20 14 -20 23 0
21 -55 84 -65 74 -4 -4 -5 2 -3 13 2 13 -3 20 -12 20 -8 0 -21 4 -27 8 -7 5
-18 5 -23 2 -14 -9 -50 77 -38 92 6 8 4 10 -9 7 -10 -3 -27 2 -38 11 -11 9
-14 13 -6 9 11 -5 13 -3 8 10 -4 10 -7 20 -7 22 0 2 -7 4 -15 4 -8 0 -15 5
-15 10 0 23 42 -2 53 -32 2 -7 8 -10 12 -6 7 6 -30 66 -50 80 -15 11 -27 10
-20 -2 3 -5 3 -15 -1 -21 -8 -14 -34 29 -27 47 2 6 -7 14 -21 18 -25 6 -37 36
-15 36 5 0 7 5 4 10 -4 6 -10 8 -15 5 -11 -7 -40 22 -40 41 0 8 -4 14 -8 14
-5 0 -15 12 -23 28 -15 29 -49 59 -63 54 -5 -2 -6 5 -2 14 4 9 -2 25 -13 38
-11 11 -32 36 -46 54 -33 40 -48 42 -29 2 9 -16 19 -30 24 -30 4 0 20 -20 34
-44 14 -24 39 -55 56 -69 30 -26 41 -45 18 -31 -7 4 -5 -2 5 -13 32 -36 18
-43 -15 -7 -18 20 -43 46 -55 59 -13 13 -23 29 -23 35 0 5 -3 10 -7 10 -5 0
-24 25 -43 55 -19 30 -38 54 -42 55 -5 0 -8 5 -8 11 0 6 -9 22 -20 36 -28 36
-15 43 16 10 39 -42 60 -34 28 12 -13 18 -23 22 -47 18 -33 -4 -67 17 -67 43
0 9 -10 26 -22 37 -13 11 -32 33 -43 47 -25 33 -100 126 -120 147 -8 9 -15 21
-15 28 0 16 -50 81 -62 81 -5 0 -6 -10 -2 -22z"/>
<path d="M26381 3140 c0 -8 6 -24 14 -34 19 -25 19 -9 0 24 -8 14 -14 19 -14
10z"/>
<path d="M23130 3086 c0 -7 9 -16 20 -19 15 -4 20 0 20 14 0 12 -7 19 -20 19
-11 0 -20 -6 -20 -14z"/>
<path d="M18169 3078 c-8 -24 -20 -546 -23 -953 -1 -125 6 -293 13 -303 3 -5
15 -12 26 -16 20 -6 20 -1 20 232 0 130 5 334 12 452 7 118 13 291 15 383 l3
168 -25 19 c-22 18 -39 24 -41 18z"/>
<path d="M26776 3023 c7 -32 21 -50 30 -41 11 12 -7 68 -22 68 -11 0 -13 -7
-8 -27z"/>
<path d="M23200 2975 c0 -8 6 -15 14 -15 8 0 18 -9 21 -20 8 -26 35 -26 35 -1
0 12 -13 26 -32 35 -38 20 -38 20 -38 1z"/>
<path d="M26740 2955 c0 -11 5 -27 10 -35 8 -12 10 -12 10 5 0 11 -5 27 -10
35 -8 12 -10 12 -10 -5z"/>
<path d="M26766 2885 c4 -8 8 -15 10 -15 2 0 4 7 4 15 0 8 -4 15 -10 15 -5 0
-7 -7 -4 -15z"/>
<path d="M26845 2890 c3 -5 11 -10 16 -10 6 0 7 5 4 10 -3 6 -11 10 -16 10 -6
0 -7 -4 -4 -10z"/>
<path d="M25330 2870 c0 -5 5 -10 11 -10 5 0 7 5 4 10 -3 6 -8 10 -11 10 -2 0
-4 -4 -4 -10z"/>
<path d="M26184 2710 c2 -8 10 -33 17 -55 16 -51 69 -136 69 -112 0 17 -57
136 -80 167 -10 13 -11 13 -6 0z"/>
<path d="M26601 2675 c1 -19 18 -51 18 -35 0 8 -4 22 -9 30 -5 8 -9 11 -9 5z"/>
<path d="M22567 2524 c-7 -13 19 -47 33 -42 8 2 5 12 -8 27 -10 14 -21 20 -25
15z"/>
<path d="M22640 2470 c0 -5 7 -10 16 -10 8 0 12 5 9 10 -3 6 -10 10 -16 10 -5
0 -9 -4 -9 -10z"/>
<path d="M23270 2381 c0 -5 7 -15 16 -22 9 -8 27 -30 40 -49 65 -96 119 -171
159 -220 73 -89 152 -208 222 -332 38 -68 68 -96 37 -35 -30 58 -118 202 -126
205 -4 2 -8 9 -8 15 0 13 -68 116 -99 150 -47 51 -131 156 -162 202 -37 54
-79 100 -79 86z"/>
<path d="M22750 2325 c0 -8 5 -15 10 -15 6 0 10 7 10 15 0 8 -4 15 -10 15 -5
0 -10 -7 -10 -15z"/>
<path d="M22821 2297 c9 -7 19 -22 23 -34 4 -12 16 -25 27 -28 14 -5 18 -12
13 -29 -6 -24 18 -52 35 -42 26 16 -67 146 -104 145 -5 0 -3 -5 6 -12z"/>
<path d="M23800 2250 c6 -11 15 -20 21 -20 6 0 6 7 -1 20 -6 11 -15 20 -21 20
-6 0 -6 -7 1 -20z"/>
<path d="M22963 2207 c2 -7 17 -21 35 -32 17 -11 32 -28 34 -37 2 -12 7 -15
16 -9 22 13 -16 67 -56 79 -25 8 -32 8 -29 -1z"/>
<path d="M24806 2171 c-4 -7 -5 -15 -2 -18 9 -9 19 4 14 18 -4 11 -6 11 -12 0z"/>
<path d="M22930 2141 c0 -5 6 -14 14 -20 11 -9 16 -9 21 0 4 6 1 15 -6 20 -18
11 -29 11 -29 0z"/>
<path d="M22743 2108 c49 -75 180 -259 206 -289 17 -20 31 -41 31 -47 0 -6 10
-23 23 -39 13 -15 34 -49 47 -75 14 -27 28 -48 32 -48 13 0 -9 46 -54 112 -37
56 -71 110 -113 178 -12 20 -44 62 -101 135 -23 28 -47 61 -53 73 -6 12 -17
22 -23 22 -6 0 -4 -9 5 -22z"/>
<path d="M24755 2120 c-3 -5 -1 -10 4 -10 6 0 11 5 11 10 0 6 -2 10 -4 10 -3
0 -8 -4 -11 -10z"/>
<path d="M22990 2103 c0 -5 11 -19 25 -31 14 -12 25 -29 25 -37 0 -8 4 -15 9
-15 20 0 19 17 -2 41 -31 34 -57 53 -57 42z"/>
<path d="M23068 2073 c2 -16 9 -34 15 -40 6 -9 6 -13 -1 -13 -31 0 56 -104
200 -239 32 -29 55 -57 52 -62 -3 -5 1 -9 9 -9 18 0 57 -42 57 -63 0 -19 29
-37 59 -37 33 0 34 19 4 48 -16 15 -46 52 -68 82 -44 60 -82 100 -98 100 -5 0
-6 11 -3 24 4 16 1 26 -9 30 -8 3 -15 1 -15 -4 0 -21 -27 -7 -70 35 -25 25
-48 45 -52 45 -5 0 -8 20 -8 44 0 39 -3 45 -30 56 -16 7 -30 16 -30 21 0 5 -4
9 -9 9 -4 0 -6 -12 -3 -27z"/>
<path d="M24670 2050 c0 -5 9 -10 20 -10 11 0 20 5 20 10 0 6 -9 10 -20 10
-11 0 -20 -4 -20 -10z"/>
<path d="M24650 2010 c0 -5 5 -10 11 -10 5 0 7 5 4 10 -3 6 -8 10 -11 10 -2 0
-4 -4 -4 -10z"/>
<path d="M23278 1943 c7 -3 16 -2 19 1 4 3 -2 6 -13 5 -11 0 -14 -3 -6 -6z"/>
<path d="M24080 1941 c0 -5 7 -11 15 -15 8 -3 15 -13 15 -22 0 -18 22 -14 28
5 2 7 -5 15 -17 18 -12 3 -21 9 -21 14 0 5 -4 9 -10 9 -5 0 -10 -4 -10 -9z"/>
<path d="M24636 1851 c-4 -7 -5 -15 -2 -18 9 -9 19 4 14 18 -4 11 -6 11 -12 0z"/>
<path d="M24600 1810 c0 -5 7 -10 15 -10 8 0 15 5 15 10 0 6 -7 10 -15 10 -8
0 -15 -4 -15 -10z"/>
<path d="M24555 1720 c-8 -13 -1 -24 14 -19 6 3 7 10 2 18 -6 10 -10 10 -16 1z"/>
<path d="M24260 1710 c0 -5 5 -10 10 -10 6 0 10 5 10 10 0 6 -4 10 -10 10 -5
0 -10 -4 -10 -10z"/>
<path d="M20096 1675 c-3 -9 -6 -28 -6 -41 0 -21 5 -24 34 -24 29 0 33 3 29
19 -3 11 -15 29 -28 41 -20 19 -23 19 -29 5z"/>
<path d="M24563 1654 c0 -8 9 -14 19 -14 10 0 18 4 18 9 0 5 -8 11 -18 13 -11
3 -19 0 -19 -8z"/>
</g>
</svg>
