<svg width="668" height="289" viewBox="0 0 668 289" fill="none" xmlns="http://www.w3.org/2000/svg">
<ellipse cx="481.5" cy="144" rx="80.5" ry="62" fill="#B09476"/>
<ellipse cx="587.5" cy="158" rx="80.5" ry="76" fill="#E3E3E2" fill-opacity="0.8"/>
<path d="M1.92017 219.505C46.9874 224.328 78.6965 231.212 123.537 237.558C155.689 242.108 196.542 251.933 229.015 245.726C251.293 241.468 272.833 229.385 278.182 212.104C284.273 192.426 271.749 175.666 305.111 172.895C357.138 168.573 410.593 173.303 462.333 169.724C499.662 167.142 535.83 150.299 560.852 131.165C576.997 118.82 586.019 102.952 600.069 89.4746C612.118 77.917 634.255 66.1121 650.92 59.5046" stroke="#AC917D" stroke-width="3" stroke-linecap="round"/>
</svg>
